<?xml version="1.0" standalone="no"?>
<!DOCTYPE svg PUBLIC "-//W3C//DTD SVG 1.1//EN" "http://www.w3.org/Graphics/SVG/1.1/DTD/svg11.dtd" >
<!--
2013-9-30: Created.
-->
<svg>
<metadata>
Created by iconfont
</metadata>
<defs>

<font id="iconfont" horiz-adv-x="1024" >
  <font-face
    font-family="iconfont"
    font-weight="500"
    font-stretch="normal"
    units-per-em="1024"
    ascent="896"
    descent="-128"
  />
    <missing-glyph />
    
    <glyph glyph-name="back" unicode="&#59031;" d="M363.840919 423.021263C336.938714 398.641139 337.301807 358.513862 364.730379 334.513862L673.951902 63.94503C682.818816 56.186481 696.296418 57.084988 704.05497 65.951902 711.813519 74.818816 710.915012 88.296418 702.048098 96.05497L392.826577 366.623802C384.59578 373.825747 384.502227 384.164713 392.492414 391.40582L702.325747 672.192277C711.056111 680.104171 711.719614 693.595384 703.807723 702.325748 695.895829 711.056111 682.404617 711.719614 673.674253 703.807722L363.840919 423.021263Z"  horiz-adv-x="1024" />

    
    <glyph glyph-name="close" unicode="&#59034;" d="M176.661601 78.827119C168.472798 70.355945 168.701706 56.850364 177.172881 48.661562 185.644056 40.472759 199.149636 40.701668 207.338438 49.172843L826.005105 689.172843C834.193907 697.644017 833.964998 711.149597 825.493824 719.338399 817.02265 727.527202 803.517069 727.298294 795.328267 718.827119L176.661601 78.827119ZM795.328267 49.172843C803.517069 40.701668 817.02265 40.472759 825.493824 48.661562 833.964998 56.850364 834.193907 70.355945 826.005105 78.827119L207.338438 718.827119C199.149636 727.298294 185.644056 727.527202 177.172881 719.338399 168.701706 711.149597 168.472798 697.644017 176.661601 689.172843L795.328267 49.172843Z"  horiz-adv-x="1024" />

    
    <glyph glyph-name="qqkefu" unicode="&#58923;" d="M669.293419-63.322955c-56.128345 0-108.152209 14.57802-141.576459 39.326681-10.991332-0.584308-20.690228-0.584308-31.549553 0.022513-33.42732-24.771173-85.448114-39.349193-141.598972-39.349193-105.851816 0-182.673459 47.39238-182.673459 112.695688 0 31.764448 18.656919 60.231803 52.088332 80.642668-0.505513 0.760317-1.006933 1.527796-1.5104 2.321882-19.573801-14.314007-41.3385-18.404162-61.263295-11.673877-59.624982 20.249183-62.878073 124.335796-35.677571 212.021881 14.553461 46.862307 41.427528 83.58672 63.841004 107.97313-0.239454 3.145643-0.348947 6.242168-0.348947 9.30697 0 25.41074 6.597255 50.117444 19.596314 73.561389 0 0.344854 0 0.720408 0 1.087774 0 169.088046 136.160099 306.667471 303.539224 306.667471 167.358659 0 303.521828-137.578402 303.521828-306.667471 0-0.103354 0-0.214894 0-0.320295 13.280468-23.666002 20.012799-48.613184 20.012799-74.328869 0-3.369747-0.134053-6.704702-0.396019-10.07445 22.135136-24.252357 48.701189-60.697407 63.142086-107.190301 27.223015-87.676875 23.969924-191.788048-35.700083-212.06179-19.947308-6.751774-41.557488-2.64013-61.086264 11.562337-0.505513-0.784876-1.006933-1.552356-1.532913-2.338255 33.29736-20.410865 51.871391-48.805566 51.871391-80.490196C851.991438-15.930575 775.147282-63.322955 669.293419-63.322955zM534.902616 21.257395c5.353938 0 10.553357-1.928932 14.617929-5.440919 24.556279-21.218254 70.460772-34.389228 119.771851-34.389228 76.075653 0 137.949862 30.476105 137.949862 67.945485 0 19.882839-17.891486 38.740326-49.114604 51.758828-6.445806 2.689249-11.271718 8.233522-13.043061 14.985296-1.769296 6.779404-0.261966 13.963013 4.040013 19.4684 10.510378 13.367449 19.839861 27.722388 27.771507 42.62889 3.496637 6.577812 10.027377 10.985192 17.414625 11.752672 7.577582 0.825808 14.745842-2.183735 19.48682-7.888667 8.739035-10.416234 22.766516-23.050995 34.608216-19.049868 22.853497 7.777127 31.241538 79.290881 7.296173 156.38984-13.4575 43.367717-40.005133 76.754105-59.884902 97.093339-4.980431 5.112438-7.255241 12.258185-6.074346 19.292392 0.809435 4.935406 1.203408 9.568936 1.203408 14.161534 0 19.488867-5.682419 38.628786-16.914228 56.895825-2.425236 3.928472-3.581572 8.535397-3.27765 13.168927 0.109494 1.527796 0.177032 3.040243 0.177032 4.584412 0 144.420227-116.080785 261.923408-258.773671 261.923408S253.367545 669.034778 253.367545 524.614551c0-1.720178 0.086981-3.447519 0.218988-5.127787 0.303922-4.608971-0.809435-9.226129-3.213181-13.177114-11.011798-18.11559-16.60519-37.078477-16.60519-56.343239 0-4.394077 0.37146-8.912997 1.116427-13.633508 1.11438-7.017834-1.161453-14.114462-6.119371-19.164478-20.12434-20.488637-46.953382-54.095036-60.495816-97.748255-23.927969-77.123518-15.560394-148.612713 7.315616-156.36528 12.063757-4.201695 25.957185 8.696056 34.740222 19.202341 4.782933 5.704932 11.994172 8.673543 19.509333 7.888667 7.407714-0.76748 13.960966-5.199419 17.435091-11.777231 7.866155-14.83487 17.195637-29.212322 27.746948-42.693358 4.304026-5.506411 5.791913-12.71458 3.998057-19.466354-1.769296-6.776334-6.597255-12.298094-13.063527-14.987343-31.330566-13.001105-49.312102-31.898501-49.312102-51.846832 0-37.46938 61.876256-67.945485 137.927349-67.945485 49.333592 0 95.238085 13.170974 119.816876 34.404578 4.481058 3.888564 10.17985 5.929036 16.341177 5.378497 15.009855-1.161453 27.073612-1.176802 42.517349-0.01842C533.791305 21.232836 534.357194 21.257395 534.902616 21.257395z"  horiz-adv-x="1024" />

    
    <glyph glyph-name="arrow-right" unicode="&#59024;" d="M233.64790727 884.61543651c-15.37800875-14.57813845-15.37800875-38.23312099 0-52.81242339l472.05178596-447.8065061-472.05178596-447.79020629c-15.37800875-14.5874523-15.37800875-38.23428494 0-52.82173838 15.36985885-14.58628835 40.29858019-14.58628835 55.66843904 0l491.70159388 466.49926314c0 0 20.8653312 19.33311886 20.8653312 34.1126804 0 13.62108757-20.8653312 34.12083029-20.8653312 34.12083029L289.31751026 884.61543651C273.94648747 899.20288882 249.01776611 899.20288882 233.64790727 884.61543651z"  horiz-adv-x="1024" />

    
    <glyph glyph-name="qqkefu1" unicode="&#58906;" d="M916.770813 233.789906c-18.745946 108.984157-97.480148 180.385347-97.480148 180.385347 11.246135 98.952686-29.991058 116.502387-29.991058 116.502387C780.622994 836.832436 517.523807 831.471334 511.998977 831.325002c-5.526877 0.150426-268.659833 5.506411-277.30063-300.648384 0 0-41.244356-17.550725-29.997198-116.502387 0 0-78.723969-71.40119-97.474009-180.385347 0 0-10.012028-184.15009 89.975221-22.550599 0 0 22.502503-61.368696 63.736627-116.501364 0 0-73.738421-25.063839-67.483974-90.190115 0 0-2.5071-72.643484 157.464311-67.648726 0 0 112.472608 8.757454 146.217153 56.368822l29.730115 0c33.743522-47.610344 146.21306-56.368822 146.21306-56.368822 159.936619-4.995781 157.463288 67.648726 157.463288 67.648726 6.225795 65.126276-67.482951 90.190115-67.482951 90.190115 41.237193 55.132668 63.735603 116.501364 63.735603 116.501364 99.95348-161.598468 89.981361 22.550599 89.981361 22.550599L916.770813 233.788883zM916.770813 233.789906"  horiz-adv-x="1024" />

    
    <glyph glyph-name="08tishi" unicode="&#58914;" d="M512-62.016611c-245.919634 0-446.016611 200.064292-446.016611 446.016611 0 245.919634 200.095256 446.016611 446.016611 446.016611 245.952318 0 446.016611-200.064292 446.016611-446.016611S757.952318-62.016611 512-62.016611zM512 766.016611c-210.655557 0-382.016611-171.359333-382.016611-382.016611 0-210.624593 171.359333-382.016611 382.016611-382.016611 210.624593 0 382.016611 171.359333 382.016611 382.016611S722.624593 766.016611 512 766.016611zM463.99957 591.99957c0-26.509985 21.490445-48.00043 48.00043-48.00043s48.00043 21.490445 48.00043 48.00043-21.490445 48.00043-48.00043 48.00043S463.99957 618.509555 463.99957 591.99957zM512 128c-17.664722 0-32.00086 14.303454-32.00086 32.00086L479.99914 448c0 17.664722 14.336138 32.00086 32.00086 32.00086s32.00086-14.336138 32.00086-32.00086l0-287.99914C544.00086 142.303454 529.664722 128 512 128z"  horiz-adv-x="1024" />

    
    <glyph glyph-name="sousuo" unicode="&#59319;" d="M1001.472-21.504L731.136 248.832c-5.12 5.12-11.264 9.216-17.408 12.288 49.152 65.536 78.848 147.456 78.848 236.544C792.576 714.752 616.448 890.88 399.36 890.88S5.12 714.752 5.12 496.64c0-217.088 176.128-394.24 394.24-394.24 89.088 0 171.008 29.696 236.544 78.848 3.072-6.144 7.168-12.288 12.288-17.408l270.336-270.336c23.552-23.552 60.416-23.552 83.968 0 22.528 24.576 22.528 61.44-1.024 84.992zM399.36 182.272c-174.08 0-315.392 141.312-315.392 314.368 0 174.08 141.312 315.392 315.392 315.392S713.728 670.72 713.728 496.64c0-173.056-141.312-314.368-314.368-314.368z"  horiz-adv-x="1024" />

    
    <glyph glyph-name="jinggaozhuyi" unicode="&#59156;" d="M512.223332 896c-282.319924 0-512-229.684144-512-512s229.684144-511.995933 512-511.995933 511.995933 229.680076 511.995932 511.995933S794.539188 896 512.223332 896z m0-999.595806c-268.86101 0-487.595806 218.730728-487.595806 487.591739S243.362321 871.591738 512.223332 871.591738s487.591738-218.734795 487.591738-487.595805c0-268.856943-218.734795-487.591738-487.591738-487.591739zM499.789395 639.719352h24.404194v-376.780426h-24.404194zM500.578464 178.545154h23.403622v-50.500413h-23.403622z"  horiz-adv-x="1048" />

    
    <glyph glyph-name="huitui" unicode="&#59118;" d="M916.1728 720.7936H390.7584c-20.2752 0-39.2192-5.7344-55.5008-15.5648 0 0.1024 0 0.1024-0.2048 0.1024-1.9456 0-20.7872-16.4864-22.9376-18.944C237.9776 614.1952 0 384 0 384l304.64-293.7856c6.7584-9.0112 28.0576-26.7264 28.9792-26.7264 0.1024 0 0.1024 0.1024 0.1024 0.1024 16.4864-10.3424 36.1472-16.384 57.0368-16.384h525.5168c59.1872 0 107.8272 48.4352 107.8272 108.2368V612.5568c-0.1024 59.8016-48.3328 108.2368-107.9296 108.2368z m53.9648-565.3504c0-30.0032-24.1664-54.3744-53.8624-54.3744H390.7584c-9.728 0-19.2512 2.6624-27.5456 7.5776-4.5056 3.6864-13.312 11.5712-15.4624 14.0288l-2.56 3.3792-3.072 2.9696L77.6192 384c71.168 68.8128 217.1904 210.2272 272.6912 264.3968 1.9456 1.9456 7.0656 6.4512 11.0592 9.728l1.7408 1.024c8.3968 5.0176 17.92 7.7824 27.648 7.7824h525.5168c29.696 0 53.8624-24.3712 53.8624-54.3744v-457.1136zM694.0672 373.76l71.4752 71.5776c12.9024 12.8 13.0048 34.4064-0.1024 47.5136-13.2096 13.2096-34.4064 13.2096-47.5136 0.1024l-71.5776-71.5776-71.5776 71.5776c-12.8 12.8-34.304 13.0048-47.5136-0.1024-13.2096-13.312-13.2096-34.5088-0.1024-47.5136l71.5776-71.5776-71.5776-71.5776c-12.9024-12.8-13.0048-34.4064 0.1024-47.5136 13.2096-13.2096 34.4064-13.2096 47.5136-0.1024l71.5776 71.5776 71.5776-71.5776c12.8-12.8 34.4064-13.0048 47.5136 0.1024 13.2096 13.312 13.2096 34.4064 0.1024 47.5136L694.0672 373.76z"  horiz-adv-x="1024" />

    
    <glyph glyph-name="jinggao" unicode="&#58891;" d="M512 896C229.888 896 0 666.112 0 384s229.888-512 512-512 512 229.888 512 512S794.112 896 512 896z m0-999.424c-268.8 0-487.424 218.624-487.424 487.424S243.2 871.424 512 871.424s487.424-218.624 487.424-487.424-218.624-487.424-487.424-487.424zM499.712 640h24.576v-376.832h-24.576V640z m1.024-461.312h23.552v-50.688h-23.552v50.688z"  horiz-adv-x="1024" />

    
    <glyph glyph-name="jinggao1" unicode="&#58958;" d="M983.466308 583.253001c26.709289-63.146561 40.277266-130.133116 40.277266-199.253001s-13.653311-136.191773-40.277266-199.253001a509.780484 509.780484 0 0 0-109.653151-162.645063 510.463149 510.463149 0 0 0-361.898064-149.930416 509.780484 509.780484 0 0 0-361.898063 149.930416A510.463149 510.463149 0 0 0 0.00128 384a509.183151 509.183151 0 0 0 149.930417 361.898064A510.463149 510.463149 0 0 0 512.000427 895.82848a509.183151 509.183151 0 0 0 361.898063-149.930416c46.933255-46.933255 83.797194-101.546497 109.653151-162.645063zM511.915093 257.79221a35.327941 35.327941 0 0 1 35.157275 35.157275V613.290285a35.327941 35.327941 0 0 1-70.399882 0v-320.426133c0-19.285301 15.871974-35.071942 35.242607-35.071942z m0-43.349261a44.885259 44.885259 0 1 1 0-89.770517 44.885259 44.885259 0 0 1 0 89.770517z"  horiz-adv-x="1024" />

    
    <glyph glyph-name="close-eye" unicode="&#59292;" d="M972 529.2h-52.8c-20.8-39.7-46.6-76.1-77.1-108.7-42.9-45.9-92.8-82-148.4-107.2C636.2 287.29999999999995 575 274 512 274s-124.2 13.2-181.7 39.3c-55.6 25.2-105.5 61.2-148.4 107.2-30.5 32.6-56.2 69-77.1 108.7H52c28.1-60.5 66.4-114.7 112.4-160L76.8 257.5l35.8-32.1 87.5 111.7c34.9-28.6 73.3-52.5 114.5-70.9L268 129.29999999999995l43.9-17.1 46.5 136.9c41.4-13.9 85.1-22.3 130.2-24.4v-145.8h46.7V224.60000000000002c45.2 2.2 88.8 10.6 130.2 24.4L712 112.10000000000002l43.9 17.1-46.5 136.9c41.1 18.4 79.6 42.3 114.5 70.9l87.5-111.7 35.8 32.1-87.5 111.7c45.9 45.4 84.2 99.6 112.3 160.1z"  horiz-adv-x="1024" />

    
    <glyph glyph-name="jiantou" unicode="&#58885;" d="M907.955934 543.9850200000001L563.195206 888.745748a24.183503 24.183503 0 0 1-7.565833 5.089161c-0.087882 0.039946-0.167775 0.095871-0.263646 0.135818a24.071654 24.071654 0 0 1-3.890771 1.206379c-0.239678 0.055925-0.463377 0.159785-0.711045 0.207721-1.597853 0.319571-3.219674 0.487345-4.833505 0.487345H497.139968a24.279375 24.279375 0 0 1-19.669569-10.090441L135.65771 543.9850200000001a24.367256 24.367256 0 0 1 0-34.473676l34.473676-34.481665a24.383235 24.383235 0 0 1 34.473676 0l268.151671 268.15966V-103.61676499999999a24.375246 24.375246 0 0 1 24.383235-24.383235h48.758481a24.375246 24.375246 0 0 1 24.375246 24.383235V743.756577l268.726898-268.726898a24.383235 24.383235 0 0 1 34.473676 0l34.473676 34.481665a24.367256 24.367256 0 0 1 0.007989 34.473676z"  horiz-adv-x="1024" />

    
    <glyph glyph-name="arrow-left" unicode="&#59488;" d="M790.35209273-116.61543651c15.37800875 14.57813845 15.37800875 38.23312099 0 52.81242339l-472.05178596 447.8065061 472.05178596 447.79020629c15.37800875 14.5874523 15.37800875 38.23428494 0 52.82173838-15.36985884 14.58628835-40.29858019 14.58628835-55.66843905 0l-491.70159387-466.49926315c0 0-20.8653312-19.33311886-20.8653312-34.11268039 0-13.62108757 20.8653312-34.12083029 20.8653312-34.12083029L734.68248974-116.61543651C750.05351253-131.20288882 774.98223389-131.20288882 790.35209273-116.61543651z"  horiz-adv-x="1024" />

    
    <glyph glyph-name="bianji" unicode="&#59054;" d="M955.551226 605.91581a92.810092 92.810092 0 0 1 0 127.912244l-136.055944 136.47717a92.810092 92.810092 0 0 1-127.912245 0L103.130549 281.852735 42.895254-42.210339l324.063075 59.67366zM708.712888 776.512272c25.554367 25.554367 68.238585 25.554367 102.357877 0l51.108735-51.108734a70.204305 70.204305 0 0 0 9.126559-102.357878l-76.80351-68.238585-154.028246 153.466612zM145.814766 68.572055l51.529961 196.572056 391.880433 392.020842 153.60702-153.326204-392.442067-393.14411zM1152.123281-42.210339H42.895254a42.894831 42.894831 0 1 1 0-85.789661h1109.228027a42.614013 42.614013 0 1 1 0 85.228027z"  horiz-adv-x="1195" />

    
    <glyph glyph-name="Q" unicode="&#59055;" d="M511.518344 676.726246q-109.817498 0-168.579492-73.572906-57.317027-69.719661-57.317027-190.013171 0-118.366886 57.317027-189.049859 61.049859-72.248354 168.579492-72.248353a232.158043 232.158043 0 0 1 122.220132 30.585136q-48.165569 61.049859-102.23142 117.403575l60.206961 59.24365q42.98777-44.914393 103.194732-115.597366 42.98777 65.866416 42.98777 170.024459 0 121.25682-58.280338 192.662277t-168.097837 70.562558zM853.373471 896h-682.746942A171.108184 171.108184 0 0 1 0 725.373471v-682.746942A171.108184 171.108184 0 0 1 170.626529-127.518344h682.746942A171.108184 171.108184 0 0 1 1023.518344 42.626529v682.746942A171.108184 171.108184 0 0 1 853.373471 896z m-18.062088-837.117592l-66.829727-59.24365q-44.914393 64.903104-75.49953 105.964252a342.938852 342.938852 0 0 0-181.463782-45.877704Q355.823142 59.84572 266.11477 161.475071 180.620884 257.806209 180.620884 413.140169t85.01223 252.869238q87.902164 102.111007 245.403575 102.231421 155.695202 0 245.403574-101.268109Q842.89746 571.604892 842.89746 413.140169q0-152.805268-83.085607-250.220131 53.463782-71.646284 75.49953-104.03763z"  horiz-adv-x="1024" />

    
    <glyph glyph-name="tianzhibaofuwu" unicode="&#59056;" d="M512.489061 895.999759A511.992474 511.992474 0 1 1 1023.999887 384.007285 511.992474 511.992474 0 0 1 512.489061 895.999759z m0-978.107918a466.115444 466.115444 0 1 0 466.115444 466.115444 466.115444 466.115444 0 0 0-466.115444-466.115444zM332.834129 672.514803A30.103038 30.103038 0 0 1 301.526969 643.134238a409.40132 409.40132 0 0 0-90.429527-205.423133 38.291065 38.291065 0 0 1 0-41.542193q17.098526-14.690283 36.123646 4.936899a313.071598 313.071598 0 0 1 24.082431 34.197051v-313.071598a21.674188 21.674188 0 0 1 24.082431-24.08243q22.035424 0 24.08243 24.08243V520.915903a541.011803 541.011803 0 0 1 34.197052 114.873194q3.612365 29.380565-20.831303 36.725706zM809.666255 185.568057q-149.190657 66.467508-205.423133 156.535799h185.795952c11.439155 0 17.941411 6.502256 19.506769 19.506768a23.119133 23.119133 0 0 1-22.035424 22.035424H589.552839V450.474793h127.155234q46.358679 0 48.887334 46.479091v114.391546q0 48.887334-48.887334 48.887334H423.263656q-51.295577 0-48.887334-48.887334V498.639655q0-48.887334 43.950436-48.887335h124.74699v-65.985859H361.733046a32.150045 32.150045 0 0 1-22.035424-26.85191c0-9.753384 6.502256-14.690283 19.506769-14.690283h174.115973Q482.145199 264.197193 342.587513 190.866192A18.543472 18.543472 0 0 1 337.650615 161.485626a24.082431 24.082431 0 0 1 31.788809-12.041215Q494.186414 210.37296 543.073748 288.64086v-173.513913q0-19.506769 22.035424-19.506768a24.082431 24.082431 0 0 1 24.082431 22.035424v170.985257q65.98586-85.613041 195.549336-149.190658 19.506769-7.345141 31.788808 14.690283A22.637485 22.637485 0 0 1 809.666255 185.568057zM450.235978 496.472236q-31.788808-2.408243-29.380565 29.380565v63.577617q-2.408243 24.082431 24.08243 24.08243h244.436671q29.380565 0 29.380565-31.788808v-58.640718q-2.408243-26.972322-26.85191-26.851911z"  horiz-adv-x="1024" />

    
    <glyph glyph-name="changjianwenti" unicode="&#59057;" d="M389.532446 311.580733h74.770934v-74.770934h-74.770934zM325.615357 580.032505c1.688376 62.108114 39.797433 100.217171 101.423154 102.026145 48.239312-1.567778 72.358968-25.446237 73.68555-74.650335 0-24.119656-18.572135-53.183842-54.872218-86.710164-46.430338-40.882817-55.837004-72.358968-55.837004-107.211871v-65.24367h74.770934v65.123071c0 13.145213 6.512307 34.973501 37.385467 63.434696 48.239312 42.932988 73.082558 86.830762 73.082558 130.607938 0 92.257685-56.681192 149.541868-147.853492 149.541868-112.156401 0-176.555883-64.399482-176.555882-176.555883v-9.527264h74.529737zM880.367448 386.954658l-361.794842-337.675186-7.477093-6.874102L470.333294-128l185.118361 33.64692L928.60676 161.435873l96.478625 90.207514z m-24.119656-202.846308L622.045931-34.295136l-61.263927-11.456837 12.059829 55.957602L808.00848 229.332705z m72.358968 67.655635l-24.119656-22.672476-48.239312 45.224355 24.119656 22.672477zM881.814627 419.75739V810.737016C877.714286 840.162996 853.112236 896 788.712755 896H0v-806.923095c0-3.014957 13.024614-72.358968 120.598281-74.409139 89.966317-1.326581 265.316217 0 300.048521 0v-0.72359l6.994701 0.844188-0.72359 10.009657 7.477093 4.462137a9.165469 9.165469 0 0 0 0-9.527264c12.059828 16.16017 271.707926 246.623484 443.560476 397.974325zM74.770934 140.331174V825.450006h713.941821a20.984101 20.984101 0 0 0 15.315981-4.341538c4.703333-4.94453 3.979743-16.401366 3.376752-26.531622v-340.569544L395.56236 89.076905c-32.682134 0-255.30656 0.72359-274.964079 0a43.656578 43.656578 0 0 0-35.335297 12.059828 55.957602 55.957602 0 0 0-10.49205 39.194441z"  horiz-adv-x="1025" />

    
    <glyph glyph-name="tianwuliyoutuihuanhuo" unicode="&#59059;" d="M512.489061 895.999759A511.992474 511.992474 0 1 1 1023.999887 384.007285 511.992474 511.992474 0 0 1 512.489061 895.999759z m0-978.107918a466.115444 466.115444 0 1 0 466.115444 466.115444 466.115444 466.115444 0 0 0-466.115444-466.115444zM697.201304 653.008035V655.175453a28.898917 28.898917 0 0 1-24.925316 25.16614H356.675735a28.959123 28.959123 0 0 1 0-57.918245h272.853939L481.422726 124.157859a28.922999 28.922999 0 1 1 55.510002-16.255641L695.87677 643.134238a29.019329 29.019329 0 0 1 1.08371 5.05731v4.094014s0.240824 0.481649 0.240824 0.722473z"  horiz-adv-x="1024" />

    
    <glyph glyph-name="dadaobiaozhun" unicode="&#59060;" d="M512.489061 895.999759A511.992474 511.992474 0 1 1 1023.999887 384.007285 511.992474 511.992474 0 0 1 512.489061 895.999759z m307.532639-334.384548l-367.257067-390.978261a25.406964 25.406964 0 0 0-5.659371-3.853189 26.972322 26.972322 0 0 0-2.889891-1.926594 25.647789 25.647789 0 0 0-9.994209-2.047007 26.490674 26.490674 0 0 0-9.632972 1.806182 21.915012 21.915012 0 0 0-2.76948 1.806183 24.684491 24.684491 0 0 0-5.538959 3.491952L205.197247 376.421319a26.129437 26.129437 0 1 0 36.725707 37.207356l190.612438-187.842959 349.195243 371.591904a26.237808 26.237808 0 1 0 38.050241-36.123646z"  horiz-adv-x="1024" />

    
    <glyph glyph-name="dingdan" unicode="&#59064;" d="M734.524929 297.663217h-438.306679a30.70555 30.70555 0 1 1 0-61.4111h438.306679a30.70555 30.70555 0 1 1 0 61.4111zM734.524929 505.015992h-438.306679a30.70555 30.70555 0 1 1 0-61.4111h438.306679a30.70555 30.70555 0 1 1 0 61.4111zM734.524929 712.368768h-438.306679a30.70555 30.70555 0 1 1 0-61.411101h438.306679a30.70555 30.70555 0 1 1 0 61.411101zM426.265287 90.310442H303.5635a30.70555 30.70555 0 1 1 0-61.411101h123.785512a29.862653 29.862653 0 0 1 30.223895 30.825965 30.70555 30.70555 0 0 1-31.30762 30.585136zM763.785513 896H260.214487A177.008467 177.008467 0 0 1 83.567262 719.352775v-670.70555A177.008467 177.008467 0 0 1 260.214487-127.518344h503.571026a177.008467 177.008467 0 0 1 176.647225 176.165569v670.70555A177.008467 177.008467 0 0 1 763.785513 896z m115.236124-261.298213v-586.054562a115.597366 115.597366 0 0 0-115.356538-115.356538H260.214487a115.597366 115.597366 0 0 0-107.288805 73.332079 122.822201 122.822201 0 0 0-7.465663 30.223894 115.71778 115.71778 0 0 0 0 12.041393V719.352775a115.597366 115.597366 0 0 0 114.754468 115.236124h503.571026a115.236124 115.236124 0 0 0 115.236124-115.236124z"  horiz-adv-x="1024" />

    
    <glyph glyph-name="didian" unicode="&#59065;" d="M512.447338 250.581373A227.582314 227.582314 0 1 0 740.150066 478.163688a227.823142 227.823142 0 0 0-227.702728-227.582315z m0 373.283161a146.062088 146.062088 0 1 1 145.700846-145.700846 146.182502 146.182502 0 0 1-145.700846 146.182502z m0 0M524.48873-128h-24.925682l-11.198495 6.984008c-178.33302 120.413923-342.095955 251.544685-385.324553 517.779868a155.213547 155.213547 0 0 0-2.528692 18.062088 208.195673 208.195673 0 0 0-3.492004 27.454375 161.836312 161.836312 0 0 0-1.324553 19.868297 123.303857 123.303857 0 0 0 0 16.978363 416.331138 416.331138 0 1 0 832.662276 0 220.237065 220.237065 0 0 0-1.565381-31.428034 549.569144 549.569144 0 0 0-8.428974-59.002822c-43.58984-260.816557-206.26905-389.900282-383.277517-509.350894z m-12.041392 942.238946a335.111947 335.111947 0 0 1-334.750706-334.750705 85.855127 85.855127 0 0 1 0-12.041392c0-8.428975 0.722484-12.041392 1.204139-16.015052a129.926623 129.926623 0 0 1 2.167451-19.0254l1.204139-6.863594a108.372531 108.372531 0 0 1 1.926623-13.727187c32.993415-206.991533 140.763876-320.541863 327.646284-449.98683 185.196613 128 292.605833 239.864534 325.719661 441.557856 3.853246 18.664158 6.020696 36.124177 7.947319 54.186265a141.968015 141.968015 0 0 1 1.083726 21.674506A335.352775 335.352775 0 0 1 512.447338 814.238946z m0 0"  horiz-adv-x="1024" />

    
    <glyph glyph-name="fenxiang" unicode="&#59066;" d="M1060.162093 422.622835a39.251595 39.251595 0 0 1-39.251594-39.251594v-392.882783a39.251595 39.251595 0 0 0-39.251595-39.251594H117.39015a39.251595 39.251595 0 0 0-39.251595 39.251594V658.49924A39.251595 39.251595 0 0 0 117.39015 697.750834h275.127999a39.251595 39.251595 0 0 1 0 78.503189H117.756987A117.754784 117.754784 0 0 1 0.002204 657.765565v-667.643944a117.754784 117.754784 0 0 1 117.754783-117.754784h864.635592A117.754784 117.754784 0 0 1 1100.5142-9.878379V383.371241a39.251595 39.251595 0 0 1-40.352107 39.251594zM415.262064 249.842452a38.884757 38.884757 0 1 1 73.367466-24.211264 550.255998 550.255998 0 0 0 476.888532 440.204798l-82.5384-83.638911a39.251595 39.251595 0 1 1 55.392437-55.392437l150.770143 150.036468a39.251595 39.251595 0 0 1 0 55.392438l-150.403306 150.403306a39.251595 39.251595 0 1 1-55.392437-55.392437l82.905237-82.905237a627.658675 627.658675 0 0 1-550.989672-494.496724z"  horiz-adv-x="1101" />

    
    <glyph glyph-name="kaijimima" unicode="&#59067;" d="M692.625642 388.342122h-12.041215V266.244199a98.858378 98.858378 0 0 0-98.497141-97.533843h-48.766922a21.553775 21.553775 0 0 0-21.553776-21.553776 21.192539 21.192539 0 0 0-21.553775 21.553776h-48.766922a97.774668 97.774668 0 0 0-97.654256 97.654256V388.342122h-13.606573a72.247292 72.247292 0 0 1-72.247292-72.247291v-214.21322a48.164861 48.164861 0 0 1 48.164861-48.164862h409.40132a48.164861 48.164861 0 0 1 48.164861 48.164862V316.576479a72.247292 72.247292 0 0 1-71.04317 71.765643zM330.907535 431.329261h15.894404a97.654256 97.654256 0 0 0 94.643952 73.933062h141.363868a97.654256 97.654256 0 0 0 94.643952-73.933062h20.590478a168.577014 168.577014 0 0 1 10.475857 58.399894v27.815208a196.693252 196.693252 0 1 1-393.386503 0v-27.93562a157.73992 157.73992 0 0 1 10.475857-58.520306zM512.489061 895.999759A511.992474 511.992474 0 1 1 1023.999887 384.007285 511.992474 511.992474 0 0 1 512.489061 895.999759z m296.454721-794.118148a92.476533 92.476533 0 0 0-92.596946-91.152h-409.40132a91.272412 91.272412 0 0 0-91.152 91.152V316.576479a115.114018 115.114018 0 0 0 67.430806 104.397337 214.092808 214.092808 0 0 0-12.041215 68.514515v28.056032a239.740596 239.740596 0 1 0 479.481193 0v-27.93562a212.52745 212.52745 0 0 0-12.041216-67.912454 115.23443 115.23443 0 0 0 68.875752-105.11981zM582.809759 505.262323H441.445891a97.654256 97.654256 0 0 1-94.643952-73.933062h330.651772a97.654256 97.654256 0 0 1-94.643952 73.933062zM343.791635 388.342122V266.244199a97.774668 97.774668 0 0 1 97.654256-97.654256h48.766922V273.468929a21.553775 21.553775 0 0 0 43.107551 0v-104.758573h48.766922a98.858378 98.858378 0 0 1 98.376729 97.654256V388.342122zM511.766588 295.022704a21.192539 21.192539 0 0 1-21.553775-21.553775v-104.758573a21.192539 21.192539 0 0 1 21.553775-21.553776 21.553775 21.553775 0 0 1 21.553776 21.553776v104.758573a21.192539 21.192539 0 0 1-21.553776 21.553775zM740.06803 421.696289a212.52745 212.52745 0 0 1 12.041216 67.912454v27.93562a239.740596 239.740596 0 1 1-479.481193 0v-27.93562a214.092808 214.092808 0 0 1 12.041215-68.514515 115.114018 115.114018 0 0 1-67.430806-104.397337v-214.81528a91.272412 91.272412 0 0 1 91.152-91.152h409.40132a92.476533 92.476533 0 0 1 92.596946 91.152V316.576479a115.23443 115.23443 0 0 1-70.320698 105.11981z m-424.934487 96.329722a196.693252 196.693252 0 1 0 393.386503 0v-27.935619a168.577014 168.577014 0 0 0-10.475857-58.399895H326.091049a157.73992 157.73992 0 0 0-10.957506 58.399895z m449.257742-416.1444a48.164861 48.164861 0 0 0-48.164861-48.164862h-409.40132a48.164861 48.164861 0 0 0-48.164861 48.164862V316.576479a72.247292 72.247292 0 0 0 72.247292 72.247292h362.44058a72.247292 72.247292 0 0 0 72.247292-72.247292z"  horiz-adv-x="1024" />

    
    <glyph glyph-name="kuaisushoukuan" unicode="&#59069;" d="M1047.942446 820.205866a82.02767 82.02767 0 0 0 81.885999-81.885999v-707.364693a82.02767 82.02767 0 0 0-81.885999-81.885999H157.255119a82.02767 82.02767 0 0 0-81.885999 81.885999V738.319867a82.02767 82.02767 0 0 0 81.885999 81.885999h890.687327m0 75.36912H157.255119A157.113448 157.113448 0 0 1 0.283343 738.319867v-707.364693A157.113448 157.113448 0 0 1 157.255119-126.158273h890.687327a157.113448 157.113448 0 0 1 156.546763 157.113447V738.319867A157.113448 157.113448 0 0 1 1047.942446 895.433315z m0 0M474.740454 497.478694a78.627559 78.627559 0 0 1-78.62756-78.62756v-183.322634a78.627559 78.627559 0 0 1 78.62756-78.627559h654.94632v340.011068z m92.228002-261.950194a91.661317 91.661317 0 1 0 91.661317 91.661317 91.661317 91.661317 0 0 0-91.661317-91.661317z m0 0"  horiz-adv-x="1205" />

    
    <glyph glyph-name="hege" unicode="&#59070;" d="M512.489061 895.999759A511.992474 511.992474 0 1 1 1023.999887 384.007285 511.992474 511.992474 0 0 1 512.489061 895.999759z m-1.324533-34.197051A476.350477 476.350477 0 0 0 987.876241 385.331819c0-14.690283-0.722473-29.139741-2.047007-43.468788L838.565171 394.603554a329.808887 329.808887 0 0 1-577.978334 207.229316L117.055551 653.128447A475.868828 475.868828 0 0 0 511.164528 861.802708z m0-192.659445a283.450208 283.450208 0 0 1-202.533242-84.288507L279.611957 594.969377A310.542942 310.542942 0 0 0 819.299227 401.587459l-24.804904 8.9105a284.413505 284.413505 0 0 1-283.450208 258.886128z m268.639513-253.467582l-457.566181 163.760528a270.445695 270.445695 0 0 0 457.566181-163.760528zM112.239065 645.903718L254.204993 594.969377l19.265945-6.983905 28.417268-10.235033 14.208634-5.05731L780.767338 406.283533l14.208634-5.05731 24.082431-8.790087 19.265944-6.863493 145.939529-52.258874a474.183058 474.183058 0 0 0-107.166816-252.865522l-152.803022 55.269179-21.072127 7.585965-27.574383 9.873797-16.135228 5.779783-406.993077 145.819117-16.014816 5.779784-31.30716 11.318742-20.951715 7.465554-149.431481 53.462995v2.528656a474.183058 474.183058 0 0 0 77.425014 260.571899zM511.044115 100.557077a283.088972 283.088972 0 0 1 156.535799 46.599503l28.296856-10.114621A310.663355 310.663355 0 0 0 207.123841 312.000817l32.39087-12.041215A284.533917 284.533917 0 0 1 511.044115 100.557077zM256.011176 293.938995L650.722213 153.056776A270.68652 270.68652 0 0 0 256.011176 293.938995z m255.153352-385.31889A476.350477 476.350477 0 0 0 34.934463 373.772252l150.756015-54.065057a329.808887 329.808887 0 0 1 531.138007-190.371614l154.850028-55.510002A475.266768 475.266768 0 0 0 511.164528-91.379895zM442.409188 312.241642l14.810695 49.971043-137.510679 40.940132-23.480369-78.990372 110.17712-32.752106Q433.980338 281.897779 442.409188 312.241642zM325.6094 333.072944l13.726985 46.117855 86.817163-25.768201-9.753385-32.872518q-3.37154-14.329046-14.931107-9.994208zM338.252676 419.649282l112.585363-33.474578 4.45525 14.810694q6.14102-5.177723 22.276248-16.857701 7.104317-4.696074 10.596269-7.345141l4.816486 16.376053q-50.091456 40.338071-60.206076 84.288507L403.154826 486.598439a154.488792 154.488792 0 0 0-96.329722-37.809416L301.526969 432.172146q19.627181 0 40.458484 1.565358z m72.247292 37.207355a164.723825 164.723825 0 0 1 40.699307-52.01805L349.691831 435.062038a158.462393 158.462393 0 0 1 60.928549 21.915012zM547.167761 249.627322l72.247292-21.553775q25.527376-8.428851 32.631693 18.423059l13.486162 45.395382-97.654256 29.019329z m39.736011 48.164861L637.7177 281.897779l-8.067614-27.333558a10.114621 10.114621 0 0 0-14.449458-8.428851l-39.856423 12.041215zM491.296522 333.434181l-7.706377-25.768201a256.959534 256.959534 0 0 1 36.123645 37.568592l-25.045727-84.288507 21.915011-6.502257 27.213147 91.513237a207.108903 207.108903 0 0 1 9.392148-34.317464l6.983905 23.48037a412.652448 412.652448 0 0 0-2.649068 56.954948l19.506769-5.779783 4.696074 15.65358-19.506769 5.779783 8.067615 27.333559-21.915012 6.502256-7.585966-27.213147-20.349654 6.020608-4.696074-15.65358 18.784296-5.538959a263.582203 263.582203 0 0 0-43.227963-65.745035zM575.223793 369.798651q10.716682 1.926594 20.71089 4.094013a241.546779 241.546779 0 0 1 14.931107-29.982626 172.671027 172.671027 0 0 0-45.274969-3.612365l-4.45525-14.810694a235.405759 235.405759 0 0 1 64.420502 2.167418 235.766995 235.766995 0 0 1 51.295577-36.123646l4.45525 14.449459a243.593785 243.593785 0 0 0-34.437876 27.213146A114.150721 114.150721 0 0 1 691.662345 366.186286l4.696074 15.65358-60.92855 18.061823 4.45525 6.381844 4.214425 5.538959-25.045727 7.465554a75.016771 75.016771 0 0 0-39.374774-35.160349z m44.672909 15.65358l2.047006 1.083709 42.987139-12.763688a94.884777 94.884777 0 0 0-33.233754-23.239546A127.877706 127.877706 0 0 0 614.598567 382.682751zM800.514931 233.612506l21.072127-30.464275 2.047006 34.558288 31.547984 11.920803-29.621389 11.679979-1.324534 33.233754-22.276248-24.08243-31.066336 12.161627 16.376053-30.705099-21.553775-26.731498 34.799112 8.428851zM162.089696 438.072342l34.799112 8.308438 21.072127-30.464275 2.047007 34.678701 31.547984 11.920803-29.62139 11.559566-1.324533 33.354167-22.276249-24.082431-31.066335 12.161628 16.376053-30.705099-21.553776-26.731498z"  horiz-adv-x="1024" />

    
    <glyph glyph-name="lianjiefenxiang" unicode="&#59071;" d="M1016.845717 609.701771L741.290992 885.256496a36.114643 36.114643 0 0 1-51.403175 0l-280.490392-275.554725a36.114643 36.114643 0 0 1 0-51.042029l112.075774-112.075775-70.062407-70.062407-112.075775 112.075775a36.114643 36.114643 0 0 1-51.403175 0L12.979028 212.801846a36.114643 36.114643 0 0 1 0-51.403175l276.036254-275.434342A25.641396 25.641396 0 0 1 311.767507-127.518471a36.114643 36.114643 0 0 1 23.354135 9.389807l275.434343 274.952814a33.827382 33.827382 0 0 1 0 46.708271l-112.075775 112.075775 70.062407 70.062407 112.075775-112.075775a33.827382 33.827382 0 0 1 46.708272 0L1002.761006 549.029171a36.114643 36.114643 0 0 1 9.389807 23.354136c13.964329 23.354136 9.389807 32.743943 4.694904 37.318464zM540.61396 184.873189l-228.726071-228.726071-228.726071 228.726071 228.726071 228.726071 88.721639-88.721639-111.594246-112.075775L339.816546 161.398671l112.075775 112.075775zM713.362335 357.621564l-88.721639 88.721639L736.716471 558.659742l-51.403175 51.403175-112.075775-112.075775-88.721639 88.360493 228.726071 228.726071 228.726071-228.726071z m0 0"  horiz-adv-x="1024" />

    
    <glyph glyph-name="lajixiang" unicode="&#59072;" d="M802.014739 624.289678l1.324242-630.339055c0-33.106043-13.603574-50.802727-46.830003-50.802727l-481.54244 1.324241c-33.106043 0-48.154244 15.168587-48.154244 48.154244V624.289678h-74.639079v-631.904068a120.38561 120.38561 0 0 1 120.385611-120.38561h481.060898a120.38561 120.38561 0 0 1 120.38561 120.38561V624.289678h-72.231366zM327.936206 489.096638V41.262168a31.54103 31.54103 0 0 1 1.203856-8.426993h66.0917a31.300259 31.300259 0 0 1 1.083471 8.186222v447.834469h-68.379027z m301.806725-1.565013V41.262168a32.6245 32.6245 0 0 1 0.722313-6.741594h66.814014a30.337174 30.337174 0 0 1 0.842699 6.741594V486.688925h-68.258641z m369.343052 257.865977h-267.256055V820.758994c1.203856 60.192805-48.756172 75.241006-98.595814 75.241006H393.425978c-61.878204 0-97.271573-23.234423-97.271573-73.194451v-77.407947H24.684854v-73.555608h974.401129v73.555608z m-335.273924 0h-300.964026V798.126499a29.61486 29.61486 0 0 0 28.53139 31.179873l240.77122-1.324242A29.976017 29.976017 0 0 0 663.330516 799.691512zM481.427859 487.411239V41.262168a32.263344 32.263344 0 0 1 0.722314-6.741594h66.212085a30.457559 30.457559 0 0 1 0.481543 6.741594V486.688925h-67.656713z m0 0"  horiz-adv-x="1024" />

    
    <glyph glyph-name="pengyouquanfenxiang" unicode="&#59074;" d="M718.531089 515.41876V850.24838a473.890466 473.890466 0 0 1-355.056652 20.106633zM749.594031 318.084798V835.8005s193.721992-87.770871 248.262739-300.997501zM645.328497 167.947245l357.585031 336.154009s63.209475-102.820746-31.062942-336.274408zM462.803612 125.446397h482.920391s-58.273116-158.204287-267.044983-223.460544zM305.080922 231.879114V-82.843873s125.455758-80.66733 340.247575-26.367381zM25.755241 215.625249l244.650769 219.487377v-499.053856S122.556037-12.651256 25.755241 215.625249zM19.614892 250.781757s-55.985535 180.598501 22.273815 337.117201H378.283514zM62.958532 623.296264A497.368271 497.368271 0 0 0 326.271146 859.037507l229.600894-235.741243z"  horiz-adv-x="1024" />

    
    <glyph glyph-name="pingjia" unicode="&#59075;" d="M370.063925 73.20107a314.254425 314.254425 0 0 1-115.53088 83.583853 239.798294 239.798294 0 0 1-138.871769 6.910989c-55.027123-13.039603-95.319496-44.856233-113.444544-88.147714a28.23074 28.23074 0 1 1 52.158411-21.64574c14.473959 35.728511 53.071183 50.072074 74.716924 55.418311a184.510378 184.510378 0 0 0 105.620782-5.346237c73.673755-28.55673 131.569591-109.011079 167.167706-171.340379a28.035146 28.035146 0 1 1 48.24653 27.904749 623.944989 623.944989 0 0 1-80.06316 112.662168zM1106.671081 75.678594c-18.125048 43.291481-58.41742 74.586527-113.444543 88.147714a239.92869 239.92869 0 0 1-138.871769-6.910989 314.384821 314.384821 0 0 1-115.53088-83.583853 623.423405 623.423405 0 0 1-80.063161-112.792564 28.035146 28.035146 0 1 1 48.637718-27.774353c35.858907 62.850885 93.624347 143.305234 167.167707 171.209983a184.510378 184.510378 0 0 0 105.229594 4.824653c21.64574-5.346237 60.242964-19.6898 75.238507-55.418311a28.23074 28.23074 0 1 1 52.158411 21.64574zM930.375653 359.681141c15.386731 45.117025 15.647523 91.277219 16.038711 136.785432v23.210493 32.338215c0.912772 47.333758 1.825544 96.362664 1.825544 144.478798a60.894945 60.894945 0 0 1-17.864255 42.769897 58.287024 58.287024 0 0 1-41.465937 17.473067h-1.695148a398.490258 398.490258 0 0 1-147.738699-36.641283 287.653636 287.653636 0 0 1-44.986629 82.279893 330.16274 330.16274 0 0 1-59.199796 58.808608A145.913154 145.913154 0 0 1 549.619254 896c-40.944352 0-85.930982-28.295938-137.437413-86.582962a282.307398 282.307398 0 0 1-52.15841-85.67019 334.856997 334.856997 0 0 1-135.872661 32.990195 60.634153 60.634153 0 0 1-60.894944-60.242964c0-26.079205-1.043168-52.158411-2.086337-80.845537-3.390297-90.364447-6.910989-183.728002 21.645741-267.703043a345.419076 345.419076 0 0 1 130.396027-170.6884 430.306889 430.306889 0 0 1 199.114733-74.325735h13.169999v-202.896218a28.035146 28.035146 0 0 1 56.070291 0v200.809881a388.58016 388.58016 0 0 1 348.809373 258.836114z m-693.706864 6.519801c-25.296829 74.064943-21.906533 162.212658-18.777028 247.752452 1.043168 28.817522 2.086336 55.939896 2.086337 82.931873a4.694257 4.694257 0 0 0 3.390296 4.172673c52.158411-1.30396 91.277219-16.038711 141.47969-41.074749l30.773462-15.517127 8.606138 33.250987a231.844136 231.844136 0 0 0 50.072074 94.928307c52.158411 58.939004 82.279893 67.675538 95.580288 67.675538 29.339106 0 73.673755-37.032472 100.665733-71.84821a228.845027 228.845027 0 0 0 43.813065-92.58118l7.432573-33.642175 31.425443 14.082771c54.244747 24.384057 100.274545 43.030689 156.475232 44.725838a3.129505 3.129505 0 0 0 1.825545-1.043169 4.824653 4.824653 0 0 0 1.564752-2.999108c0-47.855342-1.043168-96.49306-1.825544-143.43563V497.379345c0-40.68356 0-82.671081-13.039603-119.181968a332.249077 332.249077 0 0 0-298.867694-222.064434l-60.894945 2.216732C385.059468 174.388387 273.831657 255.625111 236.668789 366.200942z"  horiz-adv-x="1109" />

    
    <glyph glyph-name="quanchangshunfengbaoyou" unicode="&#59076;" d="M512.489061 895.999759A511.992474 511.992474 0 1 1 1023.999887 384.007285 511.992474 511.992474 0 0 1 512.489061 895.999759z m0-978.107918a466.115444 466.115444 0 1 0 466.115444 466.115444 466.115444 466.115444 0 0 0-466.115444-466.115444zM486.720861 580.881155h-80.194494v68.394103a21.312951 21.312951 0 0 1-24.082431 21.192539q-24.082431 0-24.08243-21.192539v-68.394103h-76.702542q-42.385078 2.287831-37.689004-44.793321v-318.24932q-4.696074-44.793321 37.689004-42.385078h202.774066q42.385078-2.408243 42.385077 40.097247V533.679591q2.287831 49.248571-40.097246 47.201564zM359.445215 222.534588H309.95582q-21.192539 0-18.904708 16.496465V366.186286h68.394103z m0 190.973674h-68.394103v101.387033q-2.408243 18.784296 21.192539 18.904708h47.201564z m120.412153-172.068966q-2.408243-21.192539-18.904708-18.904708h-54.185469V366.186286h73.090177z m0 172.068966h-73.331001v120.412153h54.185469c12.041215 0 18.904708-5.538959 18.904708-16.496465zM722.969505 439.396875q0 2.287831 12.041215 42.385078 21.192539 68.394103 30.705099 108.370938 21.192539 63.698029-40.097247 58.881543h-106.80558q-59.001955 9.392148-49.489395-44.793321v-485.501801q0-21.192539 24.082431-21.192539a21.312951 21.312951 0 0 1 24.082431 21.192539V582.928162q0 18.784296 14.088222 21.192538H698.887074q21.192539 2.287831 16.496465-25.888612A856.130407 856.130407 0 0 0 674.804643 455.89334q-9.392148-24.082431-7.104317-25.888613a189.04708 189.04708 0 0 1 16.496465-30.705099q47.081152-77.786251 49.489395-143.77211 7.104317-49.489395-63.698029-42.385078a27.574383 27.574383 0 0 1-30.705099-24.082431c0-14.088222 8.669675-22.035424 25.888613-24.08243q117.883498 0 115.475255 77.786251a317.767672 317.767672 0 0 1-49.489395 172.068966q-11.077918 19.868005-8.188026 24.564079z"  horiz-adv-x="1024" />

    
    <glyph glyph-name="shuangyinhao" unicode="&#59078;" d="M447.932275 735.898413L352.169312 896S0 768 0 320.067725V-128h479.898413V320.067725H224.033862s0 351.898413 223.898413 415.830688zM895.86455 320.067725s0 352.169312 224.033863 415.966137L1023.86455 896s-352.169312-128-352.169312-575.932275V-128H1151.322751V320.067725z"  horiz-adv-x="1151" />

    
    <glyph glyph-name="shouye" unicode="&#59079;" d="M753.39265-126.266925H586.522244v346.615087h-120.572534v-346.615087H299.203095a160.185687 160.185687 0 0 0-160.061896 159.938105V336.216634H111.411992a110.669246 110.669246 0 0 0-78.731141 188.905223l1.361702 1.485493L449.485493 864.804642a110.669246 110.669246 0 0 0 153.624758 0l415.44294-338.197292 1.361703-1.361702a110.669246 110.669246 0 0 0-78.235977-188.905222h-28.348163v-302.669246a160.185687 160.185687 0 0 0-159.938104-159.938105m-94.081238 72.665378h94.081238a87.396518 87.396518 0 0 1 86.653772 86.653771V365.678917a36.394584 36.394584 0 0 0 30.823984 35.89942 36.147002 36.147002 0 0 0 22.158608 7.551257h48.030947a37.880077 37.880077 0 0 1 27.852998 63.628627L554.336557 810.584139l-1.237911 0.742747a37.880077 37.880077 0 0 1-53.601547 0l-1.361702-1.361702-1.485494-1.11412L82.940039 472.510638A37.880077 37.880077 0 0 1 111.411992 408.882012h100.518376V33.67118a87.396518 87.396518 0 0 1 86.653771-86.653772h94.081238V241.887814a51.249516 51.249516 0 0 0 51.249517 51.249517h164.02321a51.249516 51.249516 0 0 0 51.249517-51.249517z m0 0M351.938104 644.951644l-142.854932-116.363636a43.599226 43.599226 0 1 1 55.087041-67.589942l142.854932 116.363636a43.599226 43.599226 0 1 1-55.087041 67.589942zM520.541586 723.806576a43.574468 43.574468 0 0 1-61.895551 6.313347l-32.680851-26.615087a43.599226 43.599226 0 0 1 55.08704-67.589942l33.299807 26.862669a43.574468 43.574468 0 0 1 6.189555 61.029013z"  horiz-adv-x="1052" />

    
    <glyph glyph-name="shunfengbaoyou" unicode="&#59080;" d="M625.900554 109.713316H396.492159a159.358193 159.358193 0 0 0-159.237832 159.237832V498.359544a159.358193 159.358193 0 0 0 159.237832 159.478554h230.612007A159.358193 159.358193 0 0 0 786.341998 498.359544v-230.371285a159.959999 159.959999 0 0 0-160.441444-158.274943z m0 0M899.601861 688.289474h-34.302934c46.940857 58.134446 61.504559 118.555755 34.302934 161.04325-42.487494 65.596839-161.16361 60.782392-276.830697-12.036118a410.311238 410.311238 0 0 1-82.567765-68.726229 28.886681 28.886681 0 0 1-57.051196-2.166502 404.052457 404.052457 0 0 1-85.21571 70.892731 370.47169 370.47169 0 0 1-156.469525 57.893724c-55.967945 4.814447-99.418329-12.036117-120.361173-45.376162-26.840542-43.209661-12.036117-103.149525 34.302935-161.16361H123.874102A74.262844 74.262844 0 0 1 49.611259 613.906269V474.287309a74.383205 74.383205 0 0 1 48.144469-69.568758 74.262844 74.262844 0 0 1-3.129391-21.063205v-437.392502A74.383205 74.383205 0 0 1 169.250265-127.518555h685.336518a73.781399 73.781399 0 0 1 73.299954 75.225733v435.707445a74.022121 74.022121 0 0 1-3.009029 20.822483A74.383205 74.383205 0 0 1 973.985066 474.287309V613.906269a74.262844 74.262844 0 0 1-74.383205 74.383205zM654.546513 787.226358c88.826546 55.36614 176.569841 62.106365 196.910879 30.331016 14.924785-23.229706-6.258781-77.031151-65.7172-129.2679H553.683851A311.013271 311.013271 0 0 0 654.546513 787.226358zM540.684844 630.756834h358.917017a16.248758 16.248758 0 0 0 16.36912-16.36912V474.287309a16.248758 16.248758 0 0 0-16.36912-16.36912H540.684844zM169.250265 817.557374c9.628894 14.443341 33.82149 21.183566 66.559728 18.294898A304.995212 304.995212 0 0 0 366.161143 787.226358a313.661216 313.661216 0 0 0 101.825553-99.418328H234.847104C175.509046 739.081889 154.44584 794.327668 169.250265 817.557374zM107.504983 613.906269A16.248758 16.248758 0 0 0 123.874102 630.756834H482.911481v-173.079367H123.874102A16.248758 16.248758 0 0 0 107.504983 474.287309z m762.247307-666.680536a16.248758 16.248758 0 0 0-16.369119-16.369119H169.250265a16.248758 16.248758 0 0 0-16.36912 16.369119V383.414623a16.248758 16.248758 0 0 0 16.36912 16.36912H482.911481V4.878735a28.946862 28.946862 0 1 1 57.893724 0V399.783743h312.93905a16.248758 16.248758 0 0 0 16.369119-16.36912z"  horiz-adv-x="1024" />

    
    <glyph glyph-name="tijiaochenggong" unicode="&#59081;" d="M512.489061 895.999759A511.992474 511.992474 0 1 1 1023.999887 384.007285 511.992474 511.992474 0 0 1 512.489061 895.999759zM291.893997 79.846187a65.142975 65.142975 0 0 0-65.142975 65.142974v478.036247a65.142975 65.142975 0 0 0 65.142975 65.142975h391.821146a65.142975 65.142975 0 0 0 65.142974-65.142975v-256.237061a172.309791 172.309791 0 0 1-43.348375 25.647789V623.025408a21.674188 21.674188 0 0 1-21.674187 21.674188H291.893997a21.674188 21.674188 0 0 1-21.674187-21.674188v-478.036247a21.674188 21.674188 0 0 1 21.674187-21.674187h212.286626a177.246689 177.246689 0 0 1 12.8841-14.449459 174.356797 174.356797 0 0 1 38.291065-29.019328zM578.474921 513.089113H357.277796A19.747593 19.747593 0 0 0 337.650615 532.836706v3.973601a19.747593 19.747593 0 0 0 19.747593 19.747593H578.474921a19.747593 19.747593 0 0 0 19.747593-19.747593v-3.973601A19.747593 19.747593 0 0 0 578.474921 513.089113z m19.747593-63.336793v-3.973601A19.747593 19.747593 0 0 0 578.474921 426.392363H357.277796A19.747593 19.747593 0 0 0 337.650615 445.899132v3.973601a19.747593 19.747593 0 0 0 19.747593 19.747593H578.474921a19.747593 19.747593 0 0 0 19.506769-19.868006z m193.863566-181.82235L653.732517 129.81723a22.39666 22.39666 0 0 0-31.186748 0l-61.410198 61.410198A21.674188 21.674188 0 1 0 591.84067 221.691703L638.680998 175.573848l122.459159 123.061221a21.710311 21.710311 0 0 0 30.705099-30.705099z"  horiz-adv-x="1024" />

    
    <glyph glyph-name="tihuoqianshou" unicode="&#59082;" d="M1024.952576 775.417355a120.582645 120.582645 0 0 1-120.582645 120.582645h-783.787192a120.582645 120.582645 0 0 1-120.582645-116.000504v-719.878391c2.049905-124.200124 63.788219-161.701327 63.788219-161.701327a90.798732 90.798732 0 0 1 128.058769 0 90.798732 90.798732 0 0 0 128.058769 0 90.798732 90.798732 0 0 1 128.058769 0 90.798732 90.798732 0 0 0 128.058769 0 90.798732 90.798732 0 0 1 128.058769 0 90.798732 90.798732 0 0 0 128.058769 0 90.798732 90.798732 0 0 1 128.058769 0s63.788219 43.409752 64.75288 165.559972V294.292602 775.417355z m-101.289422-825.388205l-3.496896-2.411653-4.220393-4.09981a26.88993 26.88993 0 0 0-37.742368 0 154.828116 154.828116 0 0 1-218.254587 0 26.88993 26.88993 0 0 0-37.742368 0 154.828116 154.828116 0 0 1-218.37517 0 26.769347 26.769347 0 0 0-37.742368 0 154.828116 154.828116 0 0 1-218.254587 0 26.769347 26.769347 0 0 0-38.104116-0.120582l-5.546802 5.426219-4.702723 2.773401a74.520075 74.520075 0 0 0-16.519822 22.307789A197.514372 197.514372 0 0 0 64.632392 66.391403V775.417355a56.07093 56.07093 0 0 0 55.950347 56.07093h783.787192A56.191513 56.191513 0 0 0 960.440861 775.417355v-709.3877c0.241165-80.669789-32.798479-111.780112-37.260037-115.638757zM140.23771 662.913747l744.838998 0 0-186.179604-744.838998 0 0 186.179604ZM186.782611 150.799254h279.269406a46.544901 46.544901 0 0 1 0 93.089802H186.782611a46.544901 46.544901 0 1 1 0-93.089802zM186.782611 313.706407h279.269406a46.544901 46.544901 0 0 1 0 93.089802H186.782611a46.544901 46.544901 0 0 1 0-93.089802z"  horiz-adv-x="1025" />

    
    <glyph glyph-name="tongzhi" unicode="&#59083;" d="M1132.751881 347.241803h-73.014233a36.575868 36.575868 0 1 0 0 73.014232h73.014233a36.575868 36.575868 0 1 0 0-73.014232zM986.585912 785.739708V822.315576L1059.737648 895.329809l36.438365-36.850874v-36.575868l-73.014233-73.151736z m-165.003915-542.450372a35.613345 35.613345 0 0 0-18.287934-5.637634 36.575868 36.575868 0 0 0 0 73.151736v1.787542a91.302167 91.302167 0 0 1 0 178.754242v1.925046a36.575868 36.575868 0 0 0 0 73.014233 35.200835 35.200835 0 0 0 18.287934-5.637634 162.528857 162.528857 0 0 0 0-317.632538z m-165.003916-371.25881a106.702532 106.702532 0 0 0-55.001305 13.750326L255.756069 128.061601H73.014233A73.014233 73.014233 0 0 0 0 201.075834V566.559507a73.151736 73.151736 0 0 0 73.014233 73.151736H255.756069L602.264292 882.129496a69.989161 69.989161 0 0 0 41.250979 13.750326s86.627056 5.775137 86.627056-73.014233V-54.680235a73.014233 73.014233 0 0 0-73.014233-73.014233z m0 876.995811c0 76.176808-36.575868 36.575868-36.575868 36.575868L292.331937 566.559507H110.00261a36.575868 36.575868 0 0 1-36.575868-36.575868v-292.331937A36.575868 36.575868 0 0 1 110.00261 201.075834h182.329327l328.907805-219.180201s36.575868-32.03826 36.575868 0v767.268208zM1096.176013-54.680235v-36.575868l-36.575868-36.575868-73.151736 73.014233v36.713371l36.575868 36.575868z m0 0"  horiz-adv-x="1172" />

    
    <glyph glyph-name="tupian" unicode="&#59084;" d="M1106.769859 895.998308H403.564191a30.73969 30.73969 0 0 1 0-61.479381h703.205668a30.73969 30.73969 0 0 0 30.739691-30.73969v-479.426363L926.843966 513.444272l-293.437136-310.217058-247.750623 136.21349-324.317834-363.517989V803.779237a30.73969 30.73969 0 0 0 30.73969 30.73969h62.889458a30.73969 30.73969 0 0 1 0 61.479381H92.219071A92.360079 92.360079 0 0 1 0 803.779237v-839.560166a92.360079 92.360079 0 0 1 92.219071-92.219071h1015.255827a92.360079 92.360079 0 0 1 92.219071 92.219071V803.779237A92.360079 92.360079 0 0 1 1106.769859 895.998308z m0-962.518927h-1001.155051l293.296127 329.112097 245.917523-136.495506 285.681709 301.615586 206.717367-184.861166v-278.631321a30.73969 30.73969 0 0 0-30.457675-30.73969zM259.313259 834.518927h47.09659a30.73969 30.73969 0 1 1 0 61.479381h-47.09659a30.73969 30.73969 0 0 1 0-61.479381zM298.090391 438.85117a142.981862 142.981862 0 1 1-143.12287 142.981862 143.263878 143.263878 0 0 1 143.12287-142.981862z m0 224.625352a81.502482 81.502482 0 1 0-81.502481-81.502482 81.643489 81.643489 0 0 0 81.502481 81.361474z"  horiz-adv-x="1199" />

    
    <glyph glyph-name="weixin" unicode="&#59085;" d="M580.040279 384.368521a24.082431 24.082431 0 0 1-23.359958-24.08243 24.082431 24.082431 0 0 1 23.359958-21.674188c17.580174 0 29.982626 10.837094 29.982626 21.674188a26.972322 26.972322 0 0 1-29.982626 24.08243z m-76.702541 112.585363a27.815207 27.815207 0 0 1 29.982626 29.260154 27.453971 27.453971 0 0 1-29.982626 29.139741 31.30716 31.30716 0 0 1-34.197052-29.139741 31.909221 31.909221 0 0 1 34.197052-29.260154zM512.489061 895.999759A511.992474 511.992474 0 1 1 1023.999887 384.007285 511.992474 511.992474 0 0 1 512.489061 895.999759z m-96.329722-641.676363a275.864242 275.864242 0 0 0-82.602737 13.365749l-84.288507-42.50549 24.082431 72.247292c-59.242779 41.662605-94.282716 94.282716-94.282716 158.462393C178.826986 568.83994 285.632565 655.175453 415.67769 655.175453c114.63237 0 217.825585-68.032866 237.814002-164.844237a115.354843 115.354843 0 0 1-22.517072 2.528655c-113.428248 0-201.088295-85.131392-201.088296-187.722546a201.208708 201.208708 0 0 1 6.622669-50.091456 174.838446 174.838446 0 0 0-20.831303-0.842885z m347.87071-81.759852l16.737289-60.206076-63.336792 36.123646a359.791513 359.791513 0 0 0-72.247292-12.041215c-111.742478 0-200.24541 76.702541-200.245411 171.828142s88.38252 171.828142 200.245411 171.828142c105.962695 0 201.088295-76.702541 201.088295-171.828142 0-53.342584-36.123646-100.905384-82.602737-135.102436zM337.650615 555.474191c-17.459762 0-36.123646-10.837094-36.123646-29.139741s18.302647-29.260153 36.123646-29.260153a28.658092 28.658092 0 0 1 29.982626 29.260153A28.176444 28.176444 0 0 1 337.650615 555.474191z m373.277674-170.985257a24.082431 24.082431 0 0 1-23.359957-24.082431A24.082431 24.082431 0 0 1 710.928289 338.611903a26.731498 26.731498 0 0 1 29.139741 21.674188 26.731498 26.731498 0 0 1-29.139741 24.08243z m0 0"  horiz-adv-x="1024" />

    
    <glyph glyph-name="weixuanze" unicode="&#59087;" d="M512.489061 895.999759A511.992474 511.992474 0 1 1 1023.999887 384.007285 513.43742 513.43742 0 0 1 512.489061 895.999759z m0-959.925683a445.524966 445.524966 0 0 0-447.933209 447.933209 445.524966 445.524966 0 0 0 447.933209 447.933209 445.524966 445.524966 0 0 0 447.933209-447.933209 445.524966 445.524966 0 0 0-447.933209-447.933209zM752.711306 532.355057l-275.74383-275.74383-179.414108 179.414108-45.274969-45.27497 226.254435-226.374847L523.807804 209.650487l-1.565358 1.685771 275.623418 275.74383-45.154558 45.274969z"  horiz-adv-x="1024" />

    
    <glyph glyph-name="weixinfenxiang" unicode="&#59088;" d="M852.371623 589.288253a217.494582 217.494582 0 0 0 42.463227-4.734576c-37.728652 182.429129-231.254443 310.706545-448.305158 310.706546C201.367432 896 0 732.065308 0 518.565525c0-121.175553 65.988152-220.157781 177.546597-298.870105l-45.422337-135.231325 158.904204 80.19188a520.063575 520.063575 0 0 1 155.649184-24.412658 329.644849 329.644849 0 0 1 39.356162 1.627511 379.209941 379.209941 0 0 0-12.576217 93.65583c0 193.377836 165.118336 353.761595 378.91403 353.761595z m-240.57564 118.364398a51.636469 51.636469 0 0 0 56.666956-55.039445 52.376246 52.376246 0 0 0-56.666956-55.039445c-32.994076 0-64.508597 22.045369-64.508597 55.039445s31.514521 54.743534 64.508597 54.743534z m-310.706545-110.07889c-32.994076 0-67.615662 22.045369-67.615663 55.039445s34.621586 55.039445 67.615663 55.039445a53.263979 53.263979 0 0 0 56.666956-55.039445 54.151712 54.151712 0 0 0-57.406734-55.483311zM1257.621731 240.113278c0 179.322063-179.322063 324.02254-379.061985 324.022541-210.688629 0-377.434475-144.700477-377.434475-324.022541s166.745846-324.02254 377.434475-324.02254c45.570293 0 89.661032 14.79555 135.231325 23.524924l119.548042-67.615662-31.514521 113.185956C1190.59789 49.842508 1257.621731 140.243317 1257.621731 240.113278z m-501.125271 58.294467a45.718249 45.718249 0 0 0-44.386649 40.835717 46.458026 46.458026 0 0 0 44.386649 45.570293c32.994076 0 56.666956-20.417859 56.666956-45.570293 0.591822-20.417859-23.67288-40.835717-56.666956-40.835717z m246.937726 0a44.386649 44.386649 0 0 0-44.38665 40.835717 45.274382 45.274382 0 0 0 44.38665 45.570293c31.514521 0 55.039445-20.417859 55.039445-45.570293 0-20.417859-23.67288-40.835717-55.039445-40.835717z"  horiz-adv-x="1258" />

    
    <glyph glyph-name="wode" unicode="&#59089;" d="M1015.579385-47.35026a527.593748 527.593748 0 0 1-339.090027 350.043947 321.635978 321.635978 0 0 1 60.186373 48.149098 319.348896 319.348896 0 1 1-451.638544 0 321.515606 321.515606 0 0 1 60.186373-48.149098A527.112257 527.112257 0 0 1 6.976142-47.35026a61.630846 61.630846 0 0 1 59.103019-78.964522h890.758323a61.630846 61.630846 0 0 1 59.103019 78.964522zM264.934938 576.060194A246.403012 246.403012 0 1 0 511.217577 329.897927a246.643757 246.643757 0 0 0-246.282639 246.162267zM81.607245-53.368897a453.083018 453.083018 0 0 0 859.46141 0zM569.116868 768.656588a217.874671 217.874671 0 0 1-247.004876-99.909379 29.178354 29.178354 0 1 1 50.436181-29.37095 159.493889 159.493889 0 0 0 180.55912 73.186629 29.190391 29.190391 0 0 1 15.76883 56.214073zM671.192957 716.174071a219.439517 219.439517 0 0 1-27.083868 17.815166 29.154279 29.154279 0 1 1-28.407968-50.917672 160.817989 160.817989 0 0 0 19.861503-13.120629 29.322801 29.322801 0 1 1 36.111824 46.223135z"  horiz-adv-x="1024" />

    
    <glyph glyph-name="yinsibaohu" unicode="&#59091;" d="M607.488241 89.226717h-192.662277a134.020696 134.020696 0 0 0-134.261524 133.298212V416.511759A134.020696 134.020696 0 0 0 414.464722 550.412041h193.98683A134.020696 134.020696 0 0 0 742.351834 416.511759v-193.98683A135.586077 135.586077 0 0 0 607.488241 89.226717z m0 0M824.353716 435.537159A291.762935 291.762935 0 0 1 839.887112 528.737535v38.412042a328.850423 328.850423 0 1 1-657.700847 0v-38.412042a294.0508 294.0508 0 0 1 15.533396-94.163687A157.983067 157.983067 0 0 1 105.362183 291.401693v-294.291627A125.23048 125.23048 0 0 1 230.351834-127.518344h561.249295a126.916275 126.916275 0 0 1 127.036688 124.62841V291.401693a157.983067 157.983067 0 0 1-94.284101 144.135466zM240.827846 528.737535v38.412042a269.787394 269.787394 0 1 0 539.574788 0v-38.412042a230.713076 230.713076 0 0 0-14.329257-80.075258H256.240828a216.745061 216.745061 0 0 0-15.412982 80.075258z m616.760113-531.627469a65.98683 65.98683 0 0 0-65.98683-65.98683H229.388523a65.98683 65.98683 0 0 0-65.98683 65.98683V291.401693A98.739417 98.739417 0 0 0 261.900282 390.261524h496.707432a98.739417 98.739417 0 0 0 98.498589-98.498589zM511.036689 261.900282a29.019755 29.019755 0 0 1-29.380998-29.501411V89.226717a29.019755 29.019755 0 0 1 29.501412-29.501411A29.621825 29.621825 0 0 1 540.5381 89.226717V232.398871a29.019755 29.019755 0 0 1-29.501411 29.501411z"  horiz-adv-x="1024" />

    
    <glyph glyph-name="yuyuequjian" unicode="&#59092;" d="M949.283161 652.041392L504.353716 894.314205 500.861712 896 71.465663 640.361242l-3.251176-2.047037v-484.184384l452.515522-280.203198 3.612418-1.926623 428.432738 258.047037 3.130762 2.16745V656.25588z m-37.809972-77.546566v-417.475071L563.236124-52.259643V354.137347zM873.542803 643.130762L523.379116 421.087488 151.661336 635.785513l350.765757 208.316086zM484.967074 352.812794v-403.747883L113.249294 179.777987v387.732831zM292.906867 727.420508l394.235184-234.927564v-227.221072l101.268109 51.537159-3.97366 210.603951-406.878645 252.869238z m0 0"  horiz-adv-x="1024" />

    
    <glyph glyph-name="zhifubao" unicode="&#59095;" d="M512.646804 895.999639A511.977544 511.977544 0 1 1 927.8158 85.288255c-140.878111 42.985885-319.0829 165.682291-319.0829 165.682291-16.255167-36.122592-161.227171-225.645794-363.39328-140.396476s-87.055448 230.823366-87.055448 230.823366c184.586447 172.906809 414.80777 18.181705 414.80777 18.181705 43.226702 22.396007 51.655307 92.233019 53.100211 108.367777H279.656083v48.163457h173.027218v61.890041H249.79474v48.163457h202.888561v93.677923h109.571864v-93.677923h219.384545v-48.163457H562.134756v-62.130859h171.341497v-48.163456h-13.004133c3.853077-56.71247-68.994152-132.449506-68.994152-132.449506 171.582314-98.735086 314.386963-92.955471 354.242223-89.46362A511.857135 511.857135 0 0 1 512.646804 895.999639zM205.363951 292.029893s-42.865476-42.865476 33.834828-74.051315c0 0 114.629027-75.255401 291.268504 74.051315 0 0-201.564066 139.071981-325.103332 0z m0 0"  horiz-adv-x="1024" />

    
    <glyph glyph-name="zhuanyejiance" unicode="&#59096;" d="M512 670.946378a286.946378 286.946378 0 1 1 286.946378-286.946378 286.946378 286.946378 0 0 1-286.946378 286.946378z m189.651929-190.61524L468.650988 245.764817a29.019755 29.019755 0 0 0-21.192851-7.706492 27.695202 27.695202 0 0 0-20.229539 8.669803l-105.00094 104.037629a28.610348 28.610348 0 0 0 40.459078 40.459078l84.289746-84.289746 214.216368 213.734713a28.610348 28.610348 0 1 0 40.459079-40.459078zM959.939793 678.0508v1.926622a70.803387 70.803387 0 0 1-53.945437 61.651929h-1.926623a1545.031044 1545.031044 0 0 0-186.761995 43.349012 684.553151 684.553151 0 0 0-161.715898 96.331138c-0.963311 0.963311-0.963311 1.926623-1.926623 1.926623a70.201317 70.201317 0 0 1-43.349012 12.041392A76.342427 76.342427 0 0 1 469.614299 880.34619l-1.926623-1.926623a437.222954 437.222954 0 0 0-169.181561-93.441204c-0.963311 0-1.926623-0.963311-2.889934-0.963311A604.598307 604.598307 0 0 0 111.74412 739.4619a12.041392 12.041392 0 0 1-5.779868-0.963311 65.023518 65.023518 0 0 1-45.757291-57.557855v-305.249295c4.816557-244.560677 298.506115-502.607714 454.442145-502.607714s405.313264 178.092192 445.531515 498.754469v1.926623a2587.695202 2587.695202 0 0 1-0.240828 304.285983zM902.261524 378.220132C864.69238 80.195673 633.618062-69.117592 514.167451-69.117592S121.377234 159.066792 117.523989 375.691439v301.034807l2.889934 6.141111a682.626529 682.626529 0 0 1 195.431797 47.202257A488.158043 488.158043 0 0 1 505.738476 834.107244a17.821261 17.821261 0 0 0 6.502352 1.685795h4.816557a5.779868 5.779868 0 0 0 3.853245-0.963312 751.623706 751.623706 0 0 1 175.202258-103.796801c0.963311 0 1.926623-0.963311 2.889934-0.963312a1352.970837 1352.970837 0 0 1 194.468486-44.312323 13.847601 13.847601 0 0 0 8.669802-10.596426v-0.963311A2441.392286 2441.392286 0 0 0 902.261524 378.220132zM661.19285 520.669802L447.458137 306.935089l-84.289746 84.289746a28.610348 28.610348 0 0 1-40.459078-40.459078l105.000941-104.037629a27.695202 27.695202 0 0 1 20.229539-8.669803 29.019755 29.019755 0 0 1 20.711195 7.706492l233.000941 234.566321a28.610348 28.610348 0 1 1-40.459079 40.459078z"  horiz-adv-x="1024" />

    
    <glyph glyph-name="zhuanyezhijianshirenzheng" unicode="&#59097;" d="M512.489061 895.999759A511.992474 511.992474 0 1 1 1023.999887 384.007285 511.992474 511.992474 0 0 1 512.489061 895.999759z m0-978.107918a466.115444 466.115444 0 1 0 466.115444 466.115444 466.115444 466.115444 0 0 0-466.115444-466.115444zM645.905727 792.926956H379.072396a19.02512 19.02512 0 0 1-19.02512-23.239545l38.170652-168.577014L360.047276 89.238335a19.02512 19.02512 0 0 1 6.622668-15.773992l133.416666-114.391546a19.02512 19.02512 0 0 1 24.804903 0l133.416665 114.391546a19.02512 19.02512 0 0 1 6.743081 15.773992L626.639782 600.989985l38.170653 168.577014a19.02512 19.02512 0 0 1-18.904708 23.359957zM425.671899 460.228178L602.557352 390.268717l2.649067-0.722473 7.345141-97.29302-193.743154 76.702542z m6.381844 46.719915l-2.769479 0.722473 5.659371 75.257596H590.516136l7.585966-103.313628 0.842885-6.983905 2.408243-32.631693z m-16.857701-186.036776l197.716755-78.027075 3.010304-0.842885 8.188026-109.695472-216.741875 85.613041z m206.988491 433.48375l-29.62139-133.055429h-160.148163l-29.500978 133.416666z m-109.57506-756.429144L397.856692 95.861003l5.659371 74.41471 209.155909-82.482324a22.39666 22.39666 0 0 1 3.371541-0.963297z"  horiz-adv-x="1024" />

    
    <glyph glyph-name="shoukuanfangshi" unicode="&#59090;" d="M771.134366 637.234043H253.362108a48.164861 48.164861 0 0 1-48.164861-48.164862v-410.605441a48.164861 48.164861 0 0 1 48.164861-48.164861h517.772258a48.164861 48.164861 0 0 1 48.164861 48.164861V589.55083a48.164861 48.164861 0 0 1-48.164861 47.683213z m47.5628-385.31889h-380.502403a45.636206 45.636206 0 0 0-45.636206 45.636206v106.323931a45.636206 45.636206 0 0 0 45.636206 45.636206H819.299227zM491.537347 350.653119m-53.342584 0a53.342584 53.342584 0 1 1 106.685167 0 53.342584 53.342584 0 1 1-106.685167 0ZM512.489061 895.999759A511.992474 511.992474 0 1 1 1023.999887 384.007285 511.992474 511.992474 0 0 1 512.489061 895.999759z m350.278953-717.536019A91.392824 91.392824 0 0 0 771.134366 87.070916H253.362108a91.392824 91.392824 0 0 0-91.392824 91.392824V589.55083A91.392824 91.392824 0 0 0 253.362108 680.943654h517.772258a91.392824 91.392824 0 0 0 91.392824-91.392824zM771.134366 680.943654H253.362108a91.392824 91.392824 0 0 1-91.392824-91.392824v-411.08709A91.392824 91.392824 0 0 1 253.362108 87.070916h517.772258a91.392824 91.392824 0 0 1 91.392824 91.392824V589.55083A91.392824 91.392824 0 0 1 771.134366 680.943654z m48.164861-502.479914a48.164861 48.164861 0 0 0-48.164861-48.164861H253.362108a48.164861 48.164861 0 0 0-48.164861 48.164861V589.55083a48.164861 48.164861 0 0 0 48.164861 48.164861h517.772258a48.164861 48.164861 0 0 0 48.164861-48.164861zM392.558557 403.87529v-106.564755a45.636206 45.636206 0 0 1 45.636206-45.636206H819.299227V449.631908H438.194763a45.636206 45.636206 0 0 1-45.636206-45.756618z m98.97879 0a53.342584 53.342584 0 1 0-53.342584-53.342584 53.342584 53.342584 0 0 0 53.342584 53.342584z"  horiz-adv-x="1024" />

    
    <glyph glyph-name="yanhuoqueren" unicode="&#59098;" d="M883.600819 707.502488l-95.896985 35.961369c-45.551068 16.781972-87.505999 39.557507-127.063506 67.12789l-101.890547 71.922739c-23.974246 17.980685-56.339479 17.980685-80.313726 0l-101.890547-71.922739c-39.557507-27.570383-81.512438-50.345917-127.063506-67.12789l-95.896986-35.961369c-41.954931-11.987123-71.922739-49.147205-73.121451-92.300849v-221.761779c0-147.441615 76.717589-286.492245 206.178519-375.196957l189.396546-129.460931c25.172959-16.781972 56.339479-16.781972 81.512438 0l189.396547 129.460931c129.460931 88.704712 207.377231 227.755341 207.377231 375.196957V614.002927c1.198712 44.352356-28.769096 81.512438-70.724027 93.499561z m16.781973-315.261341c0-31.16652-3.596137-63.531753-11.987123-93.499561-8.390986-31.16652-20.378109-59.935616-34.762658-88.704712-15.58326-28.769096-34.762657-55.140767-57.538191-79.115013-22.775534-25.172959-49.147205-47.948493-76.717589-67.12789L528.781972-64.468247c-5.993562-3.596137-11.987123-3.596137-17.980684 0L321.404741 63.793971c-28.769096 19.179397-53.942054 41.954931-76.717589 67.12789-21.576822 23.974246-40.756219 50.345917-57.538191 79.115013-15.58326 27.570383-27.570383 57.538191-34.762657 88.704712-8.390986 31.16652-11.987123 62.333041-11.987123 93.499561V614.002927c1.198712 19.179397 14.384548 34.762657 33.563945 38.358794h2.397424l95.896986 35.961369c49.147205 19.179397 95.896986 43.153644 139.050629 74.320164l101.890547 71.92274 1.198713 1.198712 1.198712 1.198712c2.397425 2.397425 7.192274 2.397425 9.589699 0l1.198712-1.198712 1.198712-1.198712 101.890547-71.92274c43.153644-29.967808 89.903424-55.140767 139.05063-73.121451l95.896985-35.96137h2.397425c17.980685-4.794849 31.16652-20.378109 33.563945-38.358794v-222.960492zM509.602575 592.426105c-106.685397 0-194.191396-86.307287-194.191396-192.992684 0-106.685397 86.307287-194.191396 192.992684-194.191396 31.16652 0 62.333041 7.192274 89.903424 21.576822 2.397425 1.198712 5.993562 2.397425 9.589699 2.397425 5.993562 0 10.788411-2.397425 14.384548-5.993562l37.160081-37.160082c8.390986-8.390986 22.775534-8.390986 31.166521 0l32.365232 32.365233c8.390986 8.390986 8.390986 22.775534 0 31.16652L685.813287 286.754463c-5.993562 5.993562-7.192274 15.58326-3.596137 23.974246 49.147205 94.698273 11.987123 210.973368-81.512438 260.120574-29.967808 13.185836-59.935616 21.576822-91.102137 21.576822z"  horiz-adv-x="1024" />

    
    <glyph glyph-name="zhifubaozheng" unicode="&#59099;" d="M215.04 332.8c-109.226667-6.826667-136.533333-58.026667-136.533333-102.4s27.306667-109.226667 153.6-109.226667c129.706667 0 235.52 133.12 235.52 133.12s-143.36 85.333333-252.586667 78.506667zM853.333333 896H170.666667C78.506667 896 0 817.493333 0 725.333333v-682.666666c0-95.573333 78.506667-170.666667 170.666667-170.666667h682.666666c95.573333 0 170.666667 78.506667 170.666667 170.666667V725.333333c0 92.16-75.093333 170.666667-170.666667 170.666667z m98.986667-791.893333c-17.066667-34.133333-40.96-68.266667-40.96-68.266667L552.96 213.333333s-68.266667-78.506667-139.946667-112.64c-71.68-34.133333-150.186667-54.613333-235.52-34.133333-88.746667 20.48-150.186667 78.506667-139.946666 184.32 10.24 105.813333 119.466667 143.36 211.626666 143.36s262.826667-61.44 262.826667-61.44 13.653333 34.133333 30.72 71.68c13.653333 37.546667 17.066667 68.266667 17.066667 68.266667H194.56v37.546666h177.493333v68.266667H150.186667V626.346667H375.466667V732.16h116.053333V622.933333h235.52v-47.786666h-235.52v-68.266667l194.56-3.413333s-3.413333-37.546667-30.72-105.813334c-23.893333-68.266667-47.786667-102.4-47.786667-102.4l378.88-126.293333c-3.413333 3.413333-17.066667-34.133333-34.133333-64.853333z"  horiz-adv-x="1024" />

    
    <glyph glyph-name="weixinzheng" unicode="&#59100;" d="M853.333333 896H170.666667C75.093333 896 0 817.493333 0 725.333333v-682.666666c0-95.573333 78.506667-170.666667 170.666667-170.666667h682.666666c95.573333 0 170.666667 78.506667 170.666667 170.666667V725.333333c0 92.16-78.506667 170.666667-170.666667 170.666667z m30.72-494.933333C884.053333 223.573333 716.8 76.8 512 76.8c-47.786667 0-95.573333 6.826667-136.533333 23.893333-27.306667-17.066667-71.68-47.786667-92.16-54.613333-27.306667-13.653333-17.066667 13.653333-17.066667 13.653333l17.066667 88.746667c-85.333333 58.026667-139.946667 150.186667-139.946667 256C139.946667 581.973333 307.2 728.746667 512 728.746667c126.293333 0 238.933333-54.613333 303.786667-139.946667l-365.226667-167.253333s-30.72-10.24-54.613333 3.413333c-27.306667 17.066667-61.44 40.96-61.44 40.96s-40.96 34.133333-17.066667-27.306667l54.613333-129.706666s6.826667-37.546667 51.2-13.653334c34.133333 20.48 307.2 180.906667 423.253334 252.586667 23.893333-44.373333 37.546667-95.573333 37.546666-146.773333z"  horiz-adv-x="1024" />

    
    <glyph glyph-name="shenglvehao" unicode="&#59103;" d="M85.333333 384m-85.333333 0a85.333333 85.333333 0 1 1 170.666667 0 85.333333 85.333333 0 1 1-170.666667 0ZM512 384m-85.333333 0a85.333333 85.333333 0 1 1 170.666666 0 85.333333 85.333333 0 1 1-170.666666 0ZM938.666667 384m-85.333334 0a85.333333 85.333333 0 1 1 170.666667 0 85.333333 85.333333 0 1 1-170.666667 0Z"  horiz-adv-x="1024" />

    
    <glyph glyph-name="dianzhuixiaotu" unicode="&#59104;" d="M512 629.76l-133.12 133.12L0 384l378.88-378.88 133.12 133.12L266.24 384zM339.387733 382.020267l209.954134 209.988266 209.988266-209.988266-209.988266-209.954134zM645.12 762.88L512 629.76 266.24 384l245.76-245.76 133.12-133.12L1024 384 645.12 762.88z m-95.573333-587.093333L337.92 384 546.133333 592.213333 645.12 691.2l307.2-307.2-307.2-307.2-95.573333 98.986667z"  horiz-adv-x="1024" />

    
    <glyph glyph-name="zhengyan" unicode="&#59105;" d="M898.710588 561.091765l-42.164706 36.141176c-36.141176 28.912941-77.101176 55.416471-121.675294 77.101177l-50.597647 22.889411c-45.778824 16.865882-93.967059 28.912941-143.36 32.527059h-55.41647c-50.597647-3.614118-98.785882-14.456471-144.564706-31.322353L289.129412 675.538824c-44.574118-21.684706-86.738824-48.188235-122.88-75.896471l-42.164706-36.141177C46.983529 493.628235 0 420.141176 0 384c0-80.715294 228.894118-345.750588 512-345.750588C795.105882 39.454118 1024 317.741176 1024 384c0 30.117647-46.983529 104.809412-125.289412 177.091765zM830.042353 221.364706c-46.983529-38.550588-96.376471-68.668235-145.769412-90.352941-57.825882-25.298824-115.651765-37.345882-171.068235-37.345883-57.825882 0-115.651765 12.047059-174.682353 37.345883-51.802353 21.684706-101.195294 51.802353-146.974118 89.148235-39.755294 31.322353-74.691765 68.668235-101.195294 102.4-25.298824 33.731765-32.527059 54.211765-33.731765 61.44 1.204706 6.023529 8.432941 26.503529 33.731765 61.44 25.298824 34.936471 61.44 71.077647 101.195294 102.4 46.983529 37.345882 96.376471 67.463529 146.974118 89.148235 59.030588 24.094118 116.856471 37.345882 174.682353 37.345883 55.416471 0 113.242353-12.047059 171.068235-37.345883 50.597647-21.684706 99.990588-51.802353 145.769412-90.352941 38.550588-31.322353 74.691765-68.668235 102.4-103.604706 24.094118-31.322353 33.731765-50.597647 36.141176-59.030588-2.409412-8.432941-12.047059-27.708235-36.141176-59.030588-27.708235-34.936471-63.849412-72.282353-102.4-103.604706zM745.712941 388.818824v7.228235 6.023529 1.204706 4.818824 1.204706 3.614117 2.409412 3.614118 2.409411c0 1.204706 0 2.409412-1.204706 3.614118V426.164706c0 1.204706 0 2.409412-1.204706 4.818823v1.204706c0 1.204706-1.204706 3.614118-1.204705 4.818824 0 2.409412-1.204706 4.818824-1.204706 6.023529 0 1.204706 0 1.204706-1.204706 2.409412 0 1.204706-1.204706 2.409412-1.204706 3.614118-1.204706 2.409412-1.204706 3.614118-2.409412 6.023529v1.204706c-10.842353 33.731765-30.117647 65.054118-56.621176 91.557647-12.047059 12.047059-25.298824 21.684706-38.550589 31.322353-1.204706 1.204706-3.614118 2.409412-4.818823 3.614118-1.204706 0-1.204706 1.204706-2.409412 1.204705s-1.204706 1.204706-2.409412 1.204706-2.409412 1.204706-2.409411 1.204706-1.204706 0-1.204706 1.204706c-26.503529 14.456471-55.416471 24.094118-85.534118 27.708235h-6.023529-14.456471H512c-6.023529 0-12.047059 0-18.070588-1.204705h-15.661177c-1.204706 0-2.409412 0-3.614117-1.204706h-1.204706c-1.204706 0-2.409412 0-4.818824-1.204706h-1.204706c-1.204706 0-3.614118-1.204706-4.818823-1.204706h-1.204706c-1.204706 0-3.614118-1.204706-4.818824-1.204706h-1.204705c-1.204706 0-3.614118-1.204706-4.818824-1.204706h-1.204706c-1.204706 0-3.614118-1.204706-4.818823-1.204706h-1.204706c-1.204706 0-2.409412-1.204706-4.818824-1.204706h-1.204706c-1.204706 0-2.409412-1.204706-3.614117-1.204706h-1.204706c-1.204706 0-2.409412-1.204706-3.614118-1.204705-1.204706 0-1.204706 0-2.409412-1.204706-1.204706 0-2.409412-1.204706-3.614117-1.204706-1.204706 0-1.204706-1.204706-2.409412-1.204706s-1.204706-1.204706-2.409412-1.204706-2.409412-1.204706-3.614117-1.204706c-1.204706 0-1.204706 0-2.409412-1.204706-1.204706 0-2.409412-1.204706-3.614118-1.204706 0 0-1.204706 0-1.204706-1.204705-1.204706-1.204706-2.409412-1.204706-3.614117-2.409412h-1.204706c-1.204706-1.204706-2.409412-1.204706-3.614118-2.409412H397.552941c-1.204706-1.204706-2.409412-1.204706-3.614117-2.409412h-1.204706c-1.204706-1.204706-2.409412-1.204706-3.614118-2.409412h-1.204706c-1.204706-1.204706-2.409412-1.204706-3.614118-2.409411h-1.204705c-1.204706-1.204706-2.409412-1.204706-3.614118-2.409412 0 0-1.204706 0-1.204706-1.204706-1.204706-1.204706-2.409412-1.204706-3.614118-2.409412 0 0-1.204706 0-1.204705-1.204706-1.204706-1.204706-2.409412-1.204706-3.614118-2.409411l-1.204706-1.204706c-1.204706-1.204706-2.409412-1.204706-2.409412-2.409412-1.204706 0-1.204706-1.204706-2.409412-1.204706s-1.204706-1.204706-2.409411-1.204706c-1.204706-1.204706-2.409412-1.204706-3.614118-2.409412l-1.204706-1.204705c-8.432941-7.228235-16.865882-15.661176-25.298823-25.298824l-1.204706-1.204706c-1.204706-1.204706-1.204706-2.409412-2.409412-3.614117 0-1.204706-1.204706-1.204706-1.204706-2.409412s-1.204706-1.204706-1.204706-2.409412c-1.204706-1.204706-1.204706-2.409412-2.409412-2.409412l-1.204705-1.204706c-1.204706-1.204706-1.204706-2.409412-2.409412-3.614117 0 0 0-1.204706-1.204706-1.204706-1.204706-1.204706-1.204706-2.409412-2.409412-3.614118 0 0 0-1.204706-1.204706-1.204706-1.204706-1.204706-1.204706-2.409412-2.409411-3.614117v-1.204706c-1.204706-1.204706-1.204706-2.409412-2.409412-3.614118v-1.204706c-1.204706-1.204706-1.204706-2.409412-2.409412-3.614117v-1.204706c-1.204706-1.204706-1.204706-2.409412-2.409412-3.614118v-1.204706c-1.204706-1.204706-1.204706-2.409412-2.409412-3.614117v-1.204706c-1.204706-1.204706-1.204706-2.409412-2.409411-3.614118 0 0 0-1.204706-1.204706-1.204706 0-1.204706-1.204706-2.409412-1.204706-3.614118 0-1.204706 0-1.204706-1.204706-2.409411 0-1.204706-1.204706-2.409412-1.204706-3.614118 0-1.204706-1.204706-1.204706-1.204706-2.409412s-1.204706-1.204706-1.204706-2.409411-1.204706-2.409412-1.204705-3.614118c0-1.204706 0-1.204706-1.204706-2.409412 0-1.204706-1.204706-2.409412-1.204706-3.614118v-1.204705c0-1.204706-1.204706-2.409412-1.204706-3.614118v-1.204706c0-1.204706-1.204706-2.409412-1.204706-4.818823v-1.204706c0-1.204706-1.204706-3.614118-1.204706-4.818824v-1.204706c0-1.204706-1.204706-3.614118-1.204706-4.818823v-1.204706c0-1.204706-1.204706-3.614118-1.204706-4.818824v-1.204706c0-1.204706-1.204706-3.614118-1.204706-4.818823v-1.204706c0-1.204706 0-2.409412-1.204705-4.818824v-1.204705c0-1.204706 0-2.409412-1.204706-3.614118v-15.661177c0-6.023529-1.204706-12.047059-1.204706-18.070588s0-12.047059 1.204706-18.070588v-15.661176c0-1.204706 0-2.409412 1.204706-3.614118v-1.204706c0-1.204706 0-2.409412 1.204705-4.818824v-1.204705c0-1.204706 1.204706-3.614118 1.204706-4.818824v-1.204706c0-1.204706 1.204706-3.614118 1.204706-4.818823v-1.204706c0-1.204706 1.204706-3.614118 1.204706-4.818824v-1.204706c0-1.204706 1.204706-3.614118 1.204706-4.818823v-1.204706c0-1.204706 1.204706-2.409412 1.204706-4.818824v-1.204705c0-1.204706 1.204706-2.409412 1.204706-3.614118v-1.204706c0-1.204706 1.204706-2.409412 1.204706-3.614118 0-1.204706 0-1.204706 1.204706-2.409411 0-1.204706 1.204706-2.409412 1.204705-3.614118 0-1.204706 1.204706-1.204706 1.204706-2.409412s1.204706-1.204706 1.204706-2.409412 1.204706-2.409412 1.204706-2.409411c0-1.204706 1.204706-1.204706 1.204706-2.409412s1.204706-2.409412 1.204706-3.614118c0 0 0-1.204706 1.204706-1.204706 1.204706-1.204706 1.204706-2.409412 2.409411-3.614117 0 0 0-1.204706 1.204706-1.204706 1.204706-1.204706 1.204706-2.409412 2.409412-3.614118v-1.204706c1.204706-1.204706 1.204706-2.409412 2.409412-3.614117v-1.204706c1.204706-1.204706 1.204706-2.409412 2.409412-3.614118v-1.204706c1.204706-1.204706 1.204706-2.409412 2.409411-3.614117v-1.204706c1.204706-1.204706 1.204706-2.409412 2.409412-3.614118 0 0 0-1.204706 1.204706-1.204706 1.204706-1.204706 1.204706-2.409412 2.409412-3.614117l1.204706-1.204706c1.204706-1.204706 1.204706-2.409412 2.409411-3.614118l1.204706-1.204706 2.409412-2.409412 2.409412-2.409411c0-1.204706 1.204706-1.204706 1.204706-2.409412 1.204706-1.204706 1.204706-2.409412 2.409412-3.614118l1.204705-1.204706 6.02353-6.023529 1.204706-1.204706 4.818823-4.818824 1.204706-1.204705 2.409412-2.409412 2.409412-2.409412 4.818823-4.818823c1.204706-1.204706 2.409412-2.409412 4.818824-3.614118l1.204706-1.204706c1.204706-1.204706 2.409412-2.409412 3.614117-2.409412l1.204706-1.204706c1.204706-1.204706 2.409412-1.204706 3.614118-2.409411l1.204706-1.204706c1.204706-1.204706 2.409412-1.204706 3.614117-2.409412l1.204706-1.204706c1.204706-1.204706 2.409412-1.204706 3.614118-2.409412 0 0 1.204706 0 1.204706-1.204706 1.204706-1.204706 2.409412-1.204706 3.614117-2.409411h1.204706c1.204706-1.204706 3.614118-2.409412 4.818824-2.409412 2.409412-1.204706 3.614118-2.409412 6.023529-3.614118 1.204706 0 1.204706-1.204706 2.409412-1.204706 1.204706-1.204706 2.409412-1.204706 3.614118-2.409411 2.409412-1.204706 3.614118-2.409412 6.023529-3.614118h1.204706c31.322353-15.661176 67.463529-25.298824 104.809412-25.298824 16.865882 0 33.731765 1.204706 49.392941 4.818824 2.409412 0 4.818824 1.204706 7.228235 1.204706h1.204706c2.409412 1.204706 4.818824 1.204706 7.228235 2.409412h1.204706c1.204706 0 3.614118 1.204706 4.818824 1.204705 1.204706 0 1.204706 0 2.409411 1.204706 1.204706 0 3.614118 1.204706 4.818824 1.204706 1.204706 0 3.614118 1.204706 4.818824 1.204706 1.204706 0 2.409412 1.204706 3.614117 1.204706 1.204706 0 2.409412 1.204706 3.614118 1.204706 1.204706 0 1.204706 1.204706 2.409412 1.204706 2.409412 1.204706 4.818824 2.409412 8.432941 3.614117h1.204706c1.204706 1.204706 2.409412 1.204706 4.818823 2.409412 0 0 1.204706 0 1.204706 1.204706 2.409412 1.204706 6.023529 3.614118 8.432941 4.818824 1.204706 1.204706 2.409412 1.204706 3.614118 2.409411 1.204706 0 1.204706 1.204706 2.409412 1.204706 2.409412 1.204706 3.614118 2.409412 6.023529 3.614118 1.204706 0 1.204706 1.204706 2.409412 1.204706 1.204706 1.204706 2.409412 1.204706 3.614117 2.409412 1.204706 1.204706 2.409412 1.204706 3.614118 2.409411 1.204706 0 1.204706 1.204706 2.409412 1.204706 2.409412 1.204706 3.614118 2.409412 6.023529 3.614118l1.204706 1.204706c2.409412 1.204706 3.614118 3.614118 6.02353 4.818823 2.409412 1.204706 3.614118 3.614118 6.023529 6.02353 2.409412 1.204706 3.614118 3.614118 4.818824 4.818823h1.204705l1.204706 1.204706c1.204706 1.204706 2.409412 2.409412 3.614118 4.818824l1.204706 1.204705c1.204706 2.409412 3.614118 3.614118 4.818823 6.02353l1.204706 1.204706c1.204706 1.204706 1.204706 2.409412 2.409412 3.614117 0 1.204706 1.204706 1.204706 1.204706 2.409412l2.409412 2.409412 2.409411 2.409412 1.204706 1.204706c1.204706 1.204706 1.204706 2.409412 2.409412 3.614117l1.204706 1.204706c1.204706 1.204706 1.204706 2.409412 2.409412 3.614118 0 0 0 1.204706 1.204706 1.204706 1.204706 1.204706 1.204706 2.409412 2.409411 3.614117v1.204706c1.204706 1.204706 1.204706 2.409412 2.409412 3.614118v1.204706c1.204706 1.204706 1.204706 2.409412 2.409412 3.614117v1.204706c1.204706 1.204706 1.204706 2.409412 2.409412 3.614118v1.204706c1.204706 1.204706 1.204706 2.409412 2.409411 3.614117 0 0 0 1.204706 1.204706 1.204706 1.204706 1.204706 1.204706 2.409412 2.409412 3.614118 0 0 0 1.204706 1.204706 1.204706 0 1.204706 1.204706 2.409412 1.204706 3.614117 0 1.204706 1.204706 1.204706 1.204706 2.409412s1.204706 2.409412 1.204706 2.409412c0 1.204706 1.204706 1.204706 1.204705 2.409412s1.204706 1.204706 1.204706 2.409412 1.204706 2.409412 1.204706 3.614117c0 1.204706 0 1.204706 1.204706 2.409412 0 1.204706 1.204706 2.409412 1.204706 3.614118v1.204705c0 1.204706 1.204706 2.409412 1.204706 3.614118v1.204706c0 1.204706 1.204706 2.409412 1.204706 4.818824v1.204705c0 1.204706 1.204706 3.614118 1.204706 4.818824v1.204706c0 1.204706 1.204706 3.614118 1.204706 4.818823v1.204706c0 1.204706 1.204706 3.614118 1.204705 4.818824v1.204706c0 1.204706 1.204706 3.614118 1.204706 4.818823v1.204706c0 1.204706 0 2.409412 1.204706 4.818824v1.204705c0 1.204706 0 2.409412 1.204706 3.614118v2.409412 3.614118 2.409411 2.409412 3.614118 1.204706 6.023529 1.204706 6.023529 1.204706 1.204706 2.409412c-1.204706 12.047059-1.204706 13.251765-1.204706 13.251765z m-85.534117-103.604706c-6.023529-9.637647-14.456471-19.275294-22.889412-27.708236-4.818824-4.818824-10.842353-9.637647-15.661177-14.45647l-1.204706-1.204706-1.204705-1.204706c-31.322353-24.094118-68.668235-36.141176-107.218824-36.141176h-1.204706c-14.456471 0-27.708235 2.409412-40.96 4.818823-19.275294 4.818824-38.550588 13.251765-55.41647 24.094118 0 0-1.204706 0-1.204706 1.204706h-1.204706c-9.637647 6.023529-18.070588 13.251765-26.50353 21.684705-18.070588 18.070588-31.322353 38.550588-40.96 61.44-7.228235 20.48-12.047059 42.164706-12.047058 63.849412 0 24.094118 4.818824 46.983529 13.251764 68.668236 8.432941 21.684706 21.684706 40.96 38.550588 57.825882 25.298824 25.298824 56.621176 42.164706 90.352942 48.188235 12.047059 2.409412 24.094118 3.614118 36.141176 3.614118 7.228235 0 14.456471 0 21.684706-1.204706h2.409412c38.550588-4.818824 73.487059-22.889412 102.4-50.597647l1.204706-1.204706c9.637647-9.637647 18.070588-20.48 25.298823-32.527059 10.842353-16.865882 18.070588-36.141176 21.684706-55.41647v-2.409412c2.409412-10.842353 3.614118-22.889412 3.614118-34.936471 1.204706-33.731765-9.637647-67.463529-28.912941-96.37647z"  horiz-adv-x="1024" />

    
    <glyph glyph-name="qq-kefuzaixian" unicode="&#59307;" d="M314.083556 432.298667l-1.080889 3.413333-0.853334 4.380444-0.625777 2.389334v10.012444l1.080888 3.868445 1.080889 4.209777 1.365334 4.323556 1.934222 4.835556 2.56 5.006222 3.527111 5.12v3.527111l0.341333 3.299555 0.568889 4.494223 1.536 5.006222 1.365334 5.461333 1.137777 2.503111 1.308445 2.332445 1.649778 2.616889 1.763555 1.934222v12.458667l1.080889 6.428444 1.024 7.452444 1.877333 8.931556 2.616889 9.272889 1.934222 5.12 1.877334 5.518222 2.104889 5.233778 2.503111 5.518222 2.56 6.087111 2.844444 5.688889 3.413334 6.087111 4.096 6.087111 1.934222 3.413334 2.048 2.901333 4.437333 6.428444 4.551111 6.428445 5.290667 6.599111 5.518222 6.371556 6.087111 6.371555 6.257778 6.485333 7.68 6.997334 4.835556 4.266666 5.916444 4.608 5.973333 4.096 6.485334 3.868445 6.257777 3.413333 6.997334 2.901334 7.452444 3.584 7.395556 2.446222 7.395555 2.503111 8.021334 2.503111 7.964444 1.934222 8.419556 1.536 8.533333 1.422222 8.362667 1.137778 8.419555 1.137778 8.988445 0.455111H548.295111l8.874667-1.137778 8.817778-1.024 9.045333-0.967111 8.362667-1.991111 8.874666-1.877333 8.305778-2.218667 9.102222-2.389333 8.362667-2.958222 7.964444-3.413334 8.533334-3.527111 7.736889-3.925333 7.566222-4.323556 7.395555-4.721778 6.371556-4.437333 2.958222-2.56 3.072-1.820444 5.973333-5.006223 5.006223-4.835555 4.949333-5.063111 4.835556-5.518222 3.982222-5.404445 4.778666-5.518222 3.299556-5.973333 3.413333-5.290667 3.527111-6.144 2.958223-5.404445 5.006222-11.377777 2.446222-5.859556 1.934222-5.461333 1.877334-5.916445 1.706666-5.575111 1.251556-4.721778 1.536-5.688888 2.673778-10.012445 1.706666-8.760889 1.137778-8.533333 1.024-6.826667 1.536-10.410666 0.284445-1.649778 1.251555-1.877334 3.299556-5.404444 2.104889-3.640889 1.877333-3.811555 2.389333-4.096 2.104889-4.835556 1.365333-5.006222 1.536-5.461334 1.137778-5.632 0.512-2.787555 0.455111-3.413333v-2.901334l-0.455111-2.958222v-3.640889l-0.853333-3.584-1.592889-6.826667-1.763556-3.470222-1.365333-3.868444v-0.967111l0.625778-1.251556 1.763555-2.844444 7.850667-11.548445 6.144-8.647111 2.958222-5.802667 3.982223-6.314666 3.470222-6.940445 3.982222-7.452444 3.982222-8.362667 4.551111-9.443555 2.503111-5.802667 2.275556-5.632 2.048-5.973333 1.991111-5.404445 1.479111-5.632 1.536-5.290666 1.934222-10.296889 1.536-10.581334 1.080889-9.386666V286.492444l-0.739555-4.664888-0.967111-8.021334-1.422223-7.338666-2.161777-6.542223-0.796445-2.673777-1.479111-3.242667-1.251555-2.275556-1.706667-2.730666-1.479111-1.706667-1.877334-2.275556-1.706666-1.820444-1.706667-1.592889-2.218667-0.910222-1.934222-0.967111-1.536-0.568889h-2.446222l-1.592889 0.568889-2.901333 1.479111-1.365334 0.910222-1.422222 1.080889-1.536 1.365333-1.592889 1.592889-2.56 2.844445-3.072 4.039111-2.446222 4.209778-2.389333 3.356444-2.275556 3.925333-3.413333 6.940445-3.697778 7.168-0.398222 0.284444h-0.682667l-1.479111-1.137778-0.910222-1.934222-1.422222-2.275555-2.56-7.054223-3.811556-9.955555-4.892444-11.946667-3.697778-6.030222-3.868445-6.257778-4.551111-6.997333-4.892444-6.826667-2.503111-3.128889-3.072-3.413333-6.940445-6.826667 0.568889-0.625777 0.967111-0.967112 3.527111-2.104888 14.449778-6.940445 6.314667-3.470222 6.030222-3.527111 5.916445-4.323556 5.347555-4.494222 2.56-1.991111 1.934222-2.332445 1.991111-2.730666 1.649778-2.901334 0.853334-2.446222 1.137777-2.958222 0.455111-2.503111 0.568889-2.958222-0.568889-1.991111v-1.991112l-0.455111-2.104888-1.137777-1.877334-0.398223-1.479111-0.967111-1.820444-2.673778-3.584-2.389333-2.844445-1.877333-2.161778-1.592889-1.536-3.982222-2.958222-4.551111-2.56-4.778667-2.389333-5.12-2.275556-5.802667-2.275555-3.072-1.024-2.787555-0.739556-6.656-1.592889-6.940445-1.479111-6.940444-1.479111-7.509334-1.137778-7.793777-0.398222-7.964445-0.967111H646.257778l-8.988445 0.512-8.305777 0.796444-8.931556 1.194667-8.931556 0.967111-9.386666 1.308445-9.102222 2.275555-8.817778 1.706667-8.817778 2.56-9.045333 3.185778-8.817778 2.673777-4.664889 1.536-4.209778 1.536-2.616889 1.024-2.56 0.512h-7.395555l-8.533334 0.568889-4.266666 0.455111-5.575111 0.568889-3.527111-3.185777-4.892445-3.015112-6.542222-3.242666-7.338667-3.982222-4.380444-2.161778-4.664889-1.706667-10.24-4.152889-5.461333-1.422222-5.859556-1.536-8.078222-1.592889-5.006222-0.398222-5.347556-0.455111-5.575111-0.568889-6.485333-0.284445H407.438222l-14.961778 0.284445-14.563555 1.422222-7.395556 1.024-7.054222 1.137778-6.940444 0.967111-6.940445 1.422222-6.428444 2.048-6.428445 1.479111-5.745777 2.332445-5.461334 2.161778-5.12 2.446222-4.437333 2.673778-4.437333 3.242666-1.479112 1.536-1.991111 1.934222-1.479111 1.649778-1.365333 1.934222-1.194667 1.877334-0.967111 1.877333-1.422222 4.096-0.455111 2.048-0.682667 2.389333v2.161778l0.682667 2.446222v2.389334l0.455111 2.446222V167.139556l0.284444 2.616888 1.137778 2.958223 0.967111 2.958222 1.706667 3.527111 1.308444 1.365333 1.024 1.592889 2.787556 3.413334 2.161778 1.706666 2.048 1.194667 1.934222 1.536 3.072 1.024 2.389333 1.422222 3.072 1.592889 3.413334 1.024 3.413333 1.024 4.039111 0.853333 3.811556 0.568889 4.551111 0.568889 4.835555 0.398222 1.308445 0.398223h0.284444l0.568889 0.568888v0.568889l-0.853333 1.194667-2.616889 1.251556-6.485334 5.575111-4.323555 3.527111-5.12 4.380444-5.006222 4.949334-5.347556 6.314666-6.030222 7.111111-2.275556 3.868445-3.015111 3.982222-2.616889 4.551111-2.275555 5.063111-3.185778 4.778667-2.104889 5.461333-2.389333 5.404445-2.446222 6.087111-1.820445 5.802666-1.706667 7.224889-0.455111 0.227556h-0.512l-0.284444 0.568889h-0.568889l-1.080889-0.568889-0.512-0.227556-0.739555-1.251555-0.170667-1.479111-0.568889-1.251556-0.910222-2.161778-3.015111-5.347555-1.536-3.185778-2.389334-2.730667-2.616889-3.413333-2.844444-3.697778-3.072-3.356444-3.527111-3.185778-3.299556-3.015111-3.640889-2.389333-3.982222-2.446223-3.811555-1.479111-4.551111-1.137778-4.437334-0.455111h-1.024l-1.024 0.455111-0.796444 1.706667-1.308445 0.910222-1.706666 4.152889-1.024 2.275556-1.137778 3.185778-0.967111 3.356444-0.512 3.299556-1.422222 7.566222-0.455112 4.380444v14.620445l0.455112 10.808889 0.910222 5.575111 1.024 5.688889 0.967111 6.144 1.649778 5.688888 1.877333 6.656 1.934222 6.428445 2.56 6.542222 2.503111 6.371556 3.356445 6.371555 3.128889 6.940445 3.811555 6.542222 4.551111 6.997333 4.551111 6.314667 4.721778 6.997333 3.982222 4.892445 5.12 5.688889 5.404445 5.575111 2.503111 2.730666 3.015111 3.015111 4.437333 3.811556 4.551112 3.925333 7.338666 6.599111 5.575111 3.982223zM512 896a512 512 0 1 1 0-1024A512 512 0 0 1 512 896m0-994.417778A482.417778 482.417778 0 1 0 512 866.417778a482.417778 482.417778 0 0 0 0-964.835556"  horiz-adv-x="1024" />

    
    <glyph glyph-name="daifukuan" unicode="&#59086;" d="M938.666667 660.48h-102.4V807.253333c0 34.133333-27.306667 61.44-61.44 61.44h-716.8C27.306667 865.28 0 837.973333 0 803.84v-832.853333c0-37.546667 37.546667-68.266667 81.92-68.266667h860.16c34.133333 0 64.853333 17.066667 75.093333 40.96 3.413333 6.826667 6.826667 17.066667 6.826667 27.306667V592.213333c-3.413333 37.546667-37.546667 68.266667-85.333333 68.266667zM58.026667 807.253333h716.8s3.413333 0 3.413333-3.413333V657.066667H81.92c-10.24 0-17.066667-3.413333-23.893333-3.413334V807.253333z m904.533333-836.266666c0-3.413333-10.24-10.24-23.893333-10.24H81.92c-13.653333 0-23.893333 6.826667-23.893333 10.24V588.8c0 3.413333 10.24 10.24 23.893333 10.24h856.746667c13.653333 0 23.893333-6.826667 23.893333-10.24v-617.813333z m0 0M744.106667 247.466667h105.813333v-105.813334h-105.813333V247.466667zM153.6 418.133333h624.64v-58.026666H153.6V418.133333z m0 0"  horiz-adv-x="1024" />

    
    <glyph glyph-name="daishouhuo" unicode="&#59093;" d="M942.08 865.28H81.92C37.546667 865.28 0 837.973333 0 797.013333v-829.44c0-37.546667 37.546667-68.266667 81.92-68.266666h856.746667c47.786667 0 81.92 30.72 81.92 68.266666V797.013333c3.413333 40.96-34.133333 68.266667-78.506667 68.266667z m27.306667-68.266667V554.666667h-235.52V807.253333h211.626666c13.653333 0 23.893333-6.826667 23.893334-10.24z m-604.16 10.24h303.786666v-447.146666l-136.533333 88.746666c-10.24 6.826667-20.48 6.826667-30.72 0l-136.533333-88.746666V807.253333z m-283.306667 0h221.866667V554.666667H58.026667V797.013333c0 3.413333 10.24 10.24 23.893333 10.24z m860.16-846.506666H81.92c-13.653333 0-23.893333 6.826667-23.893333 10.24V496.64h245.76v-191.146667c0-13.653333 3.413333-20.48 13.653333-27.306666 10.24-6.826667 20.48-3.413333 30.72 0l167.253333 105.813333 167.253334-105.813333c3.413333-3.413333 13.653333-3.413333 17.066666-3.413334 3.413333 0 10.24 3.413333 17.066667 3.413334 10.24 3.413333 13.653333 13.653333 13.653333 27.306666v191.146667h235.52v-525.653333c3.413333-3.413333-6.826667-10.24-23.893333-10.24zM126.293333 428.373333h105.813334v-105.813333H126.293333z"  horiz-adv-x="1024" />

    
    <glyph glyph-name="dizhiguanli" unicode="&#59094;" d="M512 360.106667c-88.746667 0-160.426667 71.68-160.426667 160.426666s71.68 160.426667 160.426667 160.426667 160.426667-71.68 160.426667-160.426667-71.68-160.426667-160.426667-160.426666zM512 622.933333c-54.613333 0-98.986667-44.373333-98.986667-98.986666s44.373333-98.986667 98.986667-98.986667c54.613333 0 98.986667 44.373333 98.986667 98.986667S566.613333 622.933333 512 622.933333z m0 0M512-25.6c-6.826667 0-13.653333 3.413333-23.893333 10.24-3.413333 3.413333-44.373333 40.96-95.573334 98.986667-126.293333 133.12-201.386667 235.52-228.693333 296.96-17.066667 44.373333-27.306667 92.16-27.306667 139.946666 3.413333 208.213333 170.666667 375.466667 375.466667 375.466667s372.053333-167.253333 372.053333-372.053333c0-51.2-10.24-98.986667-30.72-146.773334-27.306667-61.44-102.4-160.426667-225.28-293.546666-54.613333-58.026667-95.573333-98.986667-95.573333-98.986667-6.826667-6.826667-13.653333-10.24-20.48-10.24z m0 860.16c-174.08 0-310.613333-139.946667-310.613333-310.613333 0-40.96 6.826667-81.92 23.893333-119.466667 23.893333-54.613333 98.986667-153.6 215.04-279.893333l75.093333-75.093334 75.093334 75.093334c116.053333 126.293333 191.146667 218.453333 215.04 273.066666 17.066667 40.96 23.893333 78.506667 23.893333 122.88-6.826667 174.08-143.36 314.026667-317.44 314.026667z m0 0M512-128c-187.733333 0-389.12 40.96-389.12 133.12 0 98.986667 221.866667 126.293333 293.546667 129.706667 10.24 0 20.48-3.413333 23.893333-10.24l75.093333-75.093334 75.093334 75.093334c6.826667 6.826667 13.653333 10.24 23.893333 10.24 68.266667-3.413333 293.546667-30.72 293.546667-129.706667-6.826667-92.16-208.213333-133.12-395.946667-133.12z m-109.226667 201.386667c-153.6-13.653333-218.453333-54.613333-218.453333-68.266667 3.413333-23.893333 116.053333-71.68 327.68-71.68 211.626667 0 327.68 51.2 327.68 71.68-3.413333 13.653333-68.266667 54.613333-218.453333 68.266667-47.786667-51.2-85.333333-88.746667-85.333334-88.746667-13.653333-13.653333-30.72-13.653333-40.96 0-6.826667 0-40.96 34.133333-92.16 88.746667z m0 0"  horiz-adv-x="1024" />

    
    <glyph glyph-name="daifahuo" unicode="&#59106;" d="M962.56 554.666667c-40.96 51.2-98.986667 75.093333-160.426667 75.093333h-191.146666V674.133333c0 34.133333-13.653333 71.68-40.96 98.986667C546.133333 800.426667 512 814.08 477.866667 814.08H136.533333c-34.133333 0-68.266667-13.653333-95.573333-40.96C13.653333 745.813333 0 715.093333 0 674.133333V76.8c0-13.653333 10.24-27.306667 27.306667-27.306667h98.986666l3.413334-6.826666c13.653333-51.2 64.853333-92.16 119.466666-92.16s102.4 37.546667 119.466667 92.16l3.413333 6.826666h296.96l3.413334-6.826666c13.653333-51.2 64.853333-92.16 119.466666-92.16s105.813333 37.546667 119.466667 92.16l3.413333 6.826666h88.746667c17.066667 0 27.306667 10.24 27.306667 27.306667v279.893333c-6.826667 81.92-27.306667 146.773333-68.266667 197.973334zM249.173333 11.946667c-37.546667 0-68.266667 30.72-68.266666 68.266666s30.72 68.266667 68.266666 68.266667 68.266667-30.72 68.266667-68.266667c-3.413333-40.96-30.72-68.266667-68.266667-68.266666z m307.2 95.573333h-184.32l-3.413333 6.826667c-13.653333 51.2-64.853333 92.16-119.466667 92.16s-105.813333-34.133333-119.466666-92.16l-3.413334-6.826667H54.613333V674.133333C54.613333 721.92 92.16 759.466667 136.533333 759.466667h337.92c20.48 0 44.373333-10.24 58.026667-23.893334 17.066667-13.653333 23.893333-34.133333 23.893333-58.026666v-570.026667z m228.693334-95.573333c-37.546667 0-68.266667 30.72-68.266667 68.266666s30.72 68.266667 68.266667 68.266667 68.266667-30.72 68.266666-68.266667-30.72-68.266667-68.266666-68.266666z m184.32 95.573333h-61.44l-3.413334 6.826667c-13.653333 51.2-64.853333 92.16-119.466666 92.16s-105.813333-37.546667-119.466667-92.16l-3.413333-6.826667h-51.2v225.28h160.426666V384h-160.426666V575.146667h191.146666c51.2 0 92.16-20.48 122.88-58.026667 27.306667-37.546667 44.373333-92.16 44.373334-157.013333v-252.586667z m0 0"  horiz-adv-x="1030" />

    
    <glyph glyph-name="kefudianhua" unicode="&#59107;" d="M901.12 510.293333c-3.413333 102.4-40.96 197.973333-116.053333 269.653334C713.386667 855.04 617.813333 896 512 896 300.373333 896 129.706667 725.333333 122.88 513.706667c-58.026667-20.48-95.573333-75.093333-95.573333-133.12v-122.88C27.306667 179.2 92.16 110.933333 174.08 110.933333h37.546667c17.066667 0 30.72 13.653333 30.72 30.72V493.226667c0 17.066667-13.653333 30.72-30.72 30.72h-27.306667c10.24 170.666667 153.6 307.2 327.68 307.2 88.746667 0 170.666667-34.133333 232.106667-95.573334 58.026667-58.026667 92.16-133.12 95.573333-218.453333h-30.72c-17.066667 0-30.72-13.653333-30.72-30.72v-348.16c0-17.066667 13.653333-30.72 30.72-30.72h10.24c-30.72-92.16-98.986667-143.36-218.453333-157.013333 0 13.653333-10.24 23.893333-20.48 23.893333h-109.226667c-13.653333 0-23.893333-13.653333-23.893333-23.893333v-54.613334c0-13.653333 13.653333-23.893333 23.893333-23.893333H580.266667c13.653333 0 20.48 10.24 23.893333 20.48 153.6 20.48 245.76 92.16 283.306667 221.866667 61.44 17.066667 109.226667 71.68 109.226666 136.533333v122.88c-3.413333 64.853333-40.96 116.053333-95.573333 136.533333zM170.666667 175.786667c-47.786667 0-81.92 37.546667-81.92 81.92v122.88c0 40.96 30.72 75.093333 68.266666 81.92h20.48v-286.72H170.666667z m761.173333 81.92c0-40.96-30.72-75.093333-75.093333-81.92h-20.48v283.306666h10.24c3.413333 0 10.24 0 17.066666-3.413333 37.546667-6.826667 64.853333-40.96 64.853334-81.92v-116.053333z"  horiz-adv-x="1024" />

    
    <glyph glyph-name="huishoudingdan" unicode="&#59108;" d="M184.32 513.706667h314.026667V452.266667H184.32zM177.493333 165.546667h669.013334v-61.44H177.493333zM184.32 339.626667h658.773333v-61.44H184.32zM907.946667 810.666667h-143.36V868.693333c0 13.653333-13.653333 27.306667-30.72 27.306667H286.72c-13.653333 0-27.306667-10.24-27.306667-27.306667v-54.613333H116.053333C58.026667 814.08 13.653333 773.12 10.24 721.92v-754.346667C13.653333-87.04 58.026667-128 116.053333-128h791.893334c58.026667 0 105.813333 40.96 105.813333 95.573333V715.093333c0 54.613333-47.786667 95.573333-105.813333 95.573334zM317.44 837.973333h389.12V725.333333H317.44V837.973333zM955.733333-32.426667c0-20.48-20.48-37.546667-47.786666-37.546666H116.053333c-27.306667 0-47.786667 17.066667-47.786666 37.546666v750.933334c0 20.48 20.48 37.546667 47.786666 37.546666h143.36v-58.026666c0-13.653333 10.24-27.306667 27.306667-27.306667h447.146667c17.066667 0 27.306667 13.653333 27.306666 30.72V756.053333h143.36c27.306667 0 47.786667-17.066667 47.786667-37.546666v-750.933334z"  horiz-adv-x="1024" />

    
    <glyph glyph-name="quanbudingdan" unicode="&#59109;" d="M876.922565-127.147377c-6.820983 0-13.641965 3.410491-20.462948 6.820982l-102.314738 81.851791-102.314737-81.851791c-13.641965-10.231474-27.28393-10.231474-37.515404 0l-102.314738 81.851791-102.314738-81.851791c-13.641965-10.231474-27.28393-10.231474-37.515404 0l-102.314737 81.851791-102.314738-81.851791c-13.641965-6.820983-30.694421-6.820983-40.925895 3.410492L31.120733-21.422148c-3.410491 3.410491-10.231474 13.641965-10.231474 20.462947V797.095754C20.889259 851.663614 68.636137 896 130.024979 896h763.950042c61.388843 0 109.13572-44.336386 109.13572-98.904246v-794.644463c0-6.820983-3.410491-17.052456-10.231474-20.462948l-95.493755-95.493755c-3.410491-6.820983-13.641965-13.641965-20.462947-13.641965zM269.855121 29.735221c6.820983 0 13.641965-3.410491 20.462947-6.820983l102.314738-81.85179 102.314738 81.85179c13.641965 10.231474 27.28393 10.231474 37.515404 0l102.314737-81.85179 102.314738 81.85179c13.641965 10.231474 27.28393 10.231474 37.515404 0l102.314738-78.441299 71.620316 68.209825v784.41299c0 20.462948-20.462948 37.515404-47.746878 37.515403H133.43547c-27.28393 0-47.746878-17.052456-47.746877-37.515403v-781.002498l68.209825-68.209826 102.314738 78.441299c3.410491 3.410491 10.231474 3.410491 13.641965 3.410492z m0 0M191.413822 517.43547h644.582847v-61.388842H191.413822v61.388842z m0 170.524563h306.944213v-61.388842h-306.944213V687.960033z m-6.820983-341.049125h654.814322v-61.388843H184.592839v61.388843z m0 0"  horiz-adv-x="1024" />

    
    </font>
</defs>
</svg>
